<svg class="chart" role="img" aria-labelledby="lln-cap" xmlns:xlink="http://www.w3.org/1999/xlink" viewBox="0 0 283.464567 119.055118" xmlns="http://www.w3.org/2000/svg" version="1.1">
 <defs>
  <style type="text/css">*{stroke-linejoin: round; stroke-linecap: butt}</style>
 </defs>
 <g id="lln-figure_1">
  <g id="lln-patch_1">
   <path d="M 0 119.055118 
L 283.464567 119.055118 
L 283.464567 0 
L 0 0 
L 0 119.055118 
z
" style="fill: none"/>
  </g>
  <g id="lln-axes_1">
   <g id="lln-patch_2">
    <path d="M 34.015748 94.053543 
L 274.96063 94.053543 
L 274.96063 4.762205 
L 34.015748 4.762205 
L 34.015748 94.053543 
z
" style="fill: none"/>
   </g>
   <g id="lln-FillBetweenPolyCollection_1">
    <path d="M 34.015748 -38.097638 
L 34.015748 136.913386 
L 58.19296 111.283615 
L 72.335723 99.929205 
L 82.370173 93.16063 
L 90.153496 88.541529 
L 96.512935 85.13185 
L 101.889764 82.481849 
L 106.547385 80.345744 
L 110.655698 78.576378 
L 114.330709 77.079547 
L 117.655161 75.791779 
L 120.690147 74.668539 
L 123.482065 73.677536 
L 126.066976 72.794706 
L 128.473471 72.0017 
L 130.724597 71.284252 
L 132.839205 70.631078 
L 134.83291 70.033121 
L 136.718793 69.483015 
L 138.507921 68.974701 
L 140.209739 68.503142 
L 141.832373 68.064112 
L 143.382866 67.654035 
L 144.86736 67.269862 
L 146.291245 66.908976 
L 147.659277 66.569117 
L 148.975672 66.248318 
L 150.244188 65.944861 
L 151.468186 65.65724 
L 152.650683 65.384122 
L 153.794404 65.124328 
L 154.901809 64.876809 
L 155.975135 64.640628 
L 157.016417 64.414945 
L 158.027512 64.199005 
L 159.010122 63.992126 
L 159.965808 63.793692 
L 160.896005 63.603142 
L 161.802039 63.41997 
L 162.685133 63.24371 
L 163.54642 63.073939 
L 164.386951 62.910268 
L 165.207703 62.752339 
L 166.009585 62.599826 
L 166.793446 62.452426 
L 167.560078 62.309858 
L 168.310222 62.171865 
L 169.044572 62.038207 
L 169.76378 61.908661 
L 170.468457 61.783022 
L 171.159179 61.661097 
L 171.836489 61.542705 
L 172.500897 61.42768 
L 173.152885 61.315866 
L 173.792909 61.207115 
L 174.421401 61.10129 
L 175.038768 60.998262 
L 175.645398 60.897911 
L 176.241658 60.800121 
L 176.827896 60.704787 
L 177.404443 60.611807 
L 177.971616 60.521085 
L 178.529713 60.432532 
L 179.079022 60.346063 
L 179.619813 60.261597 
L 180.152348 60.179058 
L 180.676874 60.098374 
L 181.193629 60.019476 
L 181.70284 59.9423 
L 182.204724 59.866783 
L 182.699489 59.792868 
L 183.187334 59.720497 
L 183.66845 59.64962 
L 184.14302 59.580183 
L 184.61122 59.51214 
L 185.073218 59.445445 
L 185.529176 59.380053 
L 185.979252 59.315922 
L 186.423593 59.253013 
L 186.862345 59.191288 
L 187.295647 59.130709 
L 187.723632 59.071241 
L 188.146429 59.012852 
L 188.564163 58.955508 
L 188.976953 58.899179 
L 189.384915 58.843836 
L 189.78816 58.78945 
L 190.186797 58.735993 
L 190.58093 58.68344 
L 190.970658 58.631765 
L 191.35608 58.580944 
L 191.73729 58.530954 
L 192.114379 58.481773 
L 192.487434 58.433378 
L 192.856542 58.38575 
L 193.221784 58.338868 
L 193.583242 58.292713 
L 193.940992 58.247266 
L 194.29511 58.202509 
L 194.645669 58.158425 
L 194.99274 58.114998 
L 195.336392 58.072211 
L 195.67669 58.030048 
L 196.013701 57.988495 
L 196.347487 57.947538 
L 196.678109 57.907161 
L 197.005626 57.867351 
L 197.330097 57.828096 
L 197.651577 57.789382 
L 197.970121 57.751197 
L 198.285783 57.71353 
L 198.598613 57.676368 
L 198.908662 57.6397 
L 199.21598 57.603516 
L 199.520614 57.567805 
L 199.82261 57.532557 
L 200.122014 57.497761 
L 200.41887 57.463409 
L 200.713221 57.429491 
L 201.005108 57.395998 
L 201.294573 57.362921 
L 201.581656 57.330251 
L 201.866395 57.29798 
L 202.148828 57.266101 
L 202.428993 57.234605 
L 202.706926 57.203485 
L 202.982661 57.172733 
L 203.256234 57.142342 
L 203.527678 57.112305 
L 203.797025 57.082615 
L 204.064309 57.053266 
L 204.32956 57.024251 
L 204.592809 56.995564 
L 204.854086 56.967199 
L 205.113421 56.939149 
L 205.370841 56.91141 
L 205.626376 56.883974 
L 205.880053 56.856838 
L 206.131897 56.829995 
L 206.381937 56.80344 
L 206.630196 56.777168 
L 206.876702 56.751173 
L 207.121477 56.725453 
L 207.364547 56.7 
L 207.605934 56.674811 
L 207.845662 56.649882 
L 208.083754 56.625207 
L 208.320232 56.600783 
L 208.555118 56.576605 
L 208.788432 56.552669 
L 209.020196 56.528972 
L 209.25043 56.505508 
L 209.479154 56.482275 
L 209.706389 56.459269 
L 209.932152 56.436486 
L 210.156464 56.413922 
L 210.379342 56.391574 
L 210.600805 56.369439 
L 210.820871 56.347513 
L 211.039558 56.325792 
L 211.256881 56.304274 
L 211.472859 56.282956 
L 211.687508 56.261835 
L 211.900844 56.240906 
L 212.112884 56.220169 
L 212.323642 56.199619 
L 212.533134 56.179254 
L 212.741375 56.159071 
L 212.948381 56.139067 
L 213.154165 56.11924 
L 213.358743 56.099588 
L 213.562127 56.080107 
L 213.764333 56.060795 
L 213.965373 56.04165 
L 214.165261 56.022669 
L 214.36401 56.00385 
L 214.561632 55.985191 
L 214.758142 55.966689 
L 214.953551 55.948343 
L 215.14787 55.93015 
L 215.341114 55.912107 
L 215.533293 55.894214 
L 215.724418 55.876468 
L 215.914502 55.858866 
L 216.103556 55.841407 
L 216.291591 55.824089 
L 216.478617 55.806911 
L 216.664646 55.789869 
L 216.849688 55.772963 
L 217.033754 55.756191 
L 217.216853 55.739551 
L 217.398996 55.72304 
L 217.580193 55.706659 
L 217.760454 55.690404 
L 217.939788 55.674274 
L 218.118204 55.658268 
L 218.295713 55.642384 
L 218.472322 55.62662 
L 218.648042 55.610975 
L 218.822882 55.595448 
L 218.996849 55.580037 
L 219.169953 55.56474 
L 219.342201 55.549557 
L 219.513604 55.534485 
L 219.684168 55.519524 
L 219.853903 55.504672 
L 220.022815 55.489928 
L 220.190914 55.47529 
L 220.358206 55.460757 
L 220.524699 55.446328 
L 220.690402 55.432002 
L 220.855321 55.417777 
L 221.019464 55.403653 
L 221.182838 55.389628 
L 221.345451 55.3757 
L 221.507309 55.36187 
L 221.66842 55.348135 
L 221.828789 55.334495 
L 221.988425 55.320949 
L 222.147333 55.307494 
L 222.305521 55.294132 
L 222.462995 55.280859 
L 222.619761 55.267677 
L 222.775825 55.254582 
L 222.931194 55.241575 
L 223.085875 55.228654 
L 223.239872 55.215819 
L 223.393192 55.203068 
L 223.545842 55.190401 
L 223.697826 55.177817 
L 223.849151 55.165314 
L 223.999822 55.152892 
L 224.149846 55.140551 
L 224.299226 55.128288 
L 224.44797 55.116104 
L 224.596082 55.103998 
L 224.743568 55.091968 
L 224.890433 55.080014 
L 225.036682 55.068135 
L 225.18232 55.056331 
L 225.327353 55.0446 
L 225.471785 55.032941 
L 225.615622 55.021355 
L 225.758868 55.00984 
L 225.901528 54.998396 
L 226.043607 54.987022 
L 226.18511 54.975716 
L 226.326041 54.96448 
L 226.466404 54.953311 
L 226.606205 54.942209 
L 226.745448 54.931173 
L 226.884138 54.920203 
L 227.022278 54.909298 
L 227.159873 54.898458 
L 227.296928 54.887682 
L 227.433446 54.876969 
L 227.569432 54.866318 
L 227.70489 54.855729 
L 227.839824 54.845202 
L 227.974237 54.834735 
L 228.108135 54.824329 
L 228.241521 54.813983 
L 228.374399 54.803695 
L 228.506772 54.793466 
L 228.638645 54.783295 
L 228.770021 54.773181 
L 228.900904 54.763124 
L 229.031298 54.753124 
L 229.161207 54.743179 
L 229.290633 54.73329 
L 229.419581 54.723455 
L 229.548054 54.713675 
L 229.676055 54.703949 
L 229.803589 54.694275 
L 229.930657 54.684655 
L 230.057265 54.675087 
L 230.183415 54.665571 
L 230.30911 54.656106 
L 230.434353 54.646692 
L 230.559149 54.637329 
L 230.6835 54.628015 
L 230.807409 54.618751 
L 230.930879 54.609537 
L 231.053914 54.600371 
L 231.176516 54.591253 
L 231.298689 54.582183 
L 231.420436 54.573161 
L 231.541759 54.564186 
L 231.662661 54.555257 
L 231.783146 54.546375 
L 231.903216 54.537538 
L 232.022875 54.528747 
L 232.142124 54.520001 
L 232.260967 54.511299 
L 232.379406 54.502642 
L 232.497445 54.494029 
L 232.615085 54.485459 
L 232.73233 54.476932 
L 232.849182 54.468448 
L 232.965644 54.460007 
L 233.081719 54.451608 
L 233.197408 54.44325 
L 233.312715 54.434934 
L 233.427642 54.426659 
L 233.542192 54.418425 
L 233.656367 54.410231 
L 233.770169 54.402077 
L 233.883601 54.393963 
L 233.996665 54.385889 
L 234.109364 54.377853 
L 234.221701 54.369856 
L 234.333676 54.361898 
L 234.445293 54.353978 
L 234.556554 54.346096 
L 234.667462 54.338251 
L 234.778018 54.330444 
L 234.888224 54.322673 
L 234.998084 54.314939 
L 235.107598 54.307242 
L 235.21677 54.299581 
L 235.325601 54.291955 
L 235.434094 54.284366 
L 235.54225 54.276811 
L 235.650072 54.269291 
L 235.757561 54.261806 
L 235.864721 54.254356 
L 235.971552 54.24694 
L 236.078057 54.239558 
L 236.184237 54.232209 
L 236.290096 54.224894 
L 236.395634 54.217612 
L 236.500854 54.210363 
L 236.605757 54.203147 
L 236.710346 54.195963 
L 236.814622 54.188811 
L 236.918588 54.181691 
L 237.022244 54.174603 
L 237.125593 54.167546 
L 237.228637 54.160521 
L 237.331378 54.153527 
L 237.433816 54.146563 
L 237.535955 54.13963 
L 237.637795 54.132728 
L 237.739339 54.125855 
L 237.840589 54.119012 
L 237.941545 54.112199 
L 238.04221 54.105416 
L 238.142585 54.098662 
L 238.242672 54.091937 
L 238.342473 54.08524 
L 238.441989 54.078573 
L 238.541222 54.071933 
L 238.640173 54.065322 
L 238.738845 54.058739 
L 238.837238 54.052184 
L 238.935354 54.045657 
L 239.033195 54.039157 
L 239.130763 54.032684 
L 239.228058 54.026238 
L 239.325083 54.019819 
L 239.421838 54.013427 
L 239.518326 54.007062 
L 239.614548 54.000722 
L 239.710505 53.994409 
L 239.806199 53.988122 
L 239.90163 53.98186 
L 239.996802 53.975625 
L 240.091715 53.969414 
L 240.18637 53.963229 
L 240.280768 53.957069 
L 240.374912 53.950934 
L 240.468803 53.944823 
L 240.562442 53.938738 
L 240.655829 53.932676 
L 240.748968 53.926639 
L 240.841858 53.920626 
L 240.934502 53.914637 
L 241.0269 53.908672 
L 241.119055 53.90273 
L 241.210966 53.896812 
L 241.302636 53.890917 
L 241.394065 53.885045 
L 241.485256 53.879197 
L 241.576209 53.873371 
L 241.666925 53.867568 
L 241.757406 53.861787 
L 241.847652 53.856029 
L 241.937666 53.850293 
L 242.027448 53.84458 
L 242.117 53.838888 
L 242.206322 53.833218 
L 242.295416 53.82757 
L 242.384284 53.821943 
L 242.472925 53.816338 
L 242.561342 53.810754 
L 242.649535 53.805191 
L 242.737505 53.79965 
L 242.825255 53.794129 
L 242.912784 53.788629 
L 243.000094 53.78315 
L 243.087186 53.777691 
L 243.174061 53.772252 
L 243.26072 53.766834 
L 243.347165 53.761436 
L 243.433396 53.756058 
L 243.519414 53.7507 
L 243.60522 53.745361 
L 243.690816 53.740042 
L 243.776203 53.734743 
L 243.861381 53.729463 
L 243.946351 53.724203 
L 244.031115 53.718961 
L 244.115673 53.713739 
L 244.200027 53.708535 
L 244.284178 53.703351 
L 244.368126 53.698185 
L 244.451872 53.693037 
L 244.535418 53.687909 
L 244.618764 53.682798 
L 244.701912 53.677706 
L 244.784861 53.672632 
L 244.867614 53.667576 
L 244.950171 53.662538 
L 245.032533 53.657517 
L 245.114701 53.652515 
L 245.196676 53.64753 
L 245.278459 53.642563 
L 245.360051 53.637613 
L 245.441452 53.63268 
L 245.522663 53.627765 
L 245.603686 53.622866 
L 245.684521 53.617985 
L 245.76517 53.613121 
L 245.845632 53.608273 
L 245.925909 53.603442 
L 246.006002 53.598628 
L 246.085911 53.59383 
L 246.165637 53.589049 
L 246.245182 53.584284 
L 246.324546 53.579536 
L 246.403729 53.574803 
L 246.482733 53.570087 
L 246.561559 53.565386 
L 246.640207 53.560702 
L 246.718678 53.556033 
L 246.796973 53.55138 
L 246.875092 53.546743 
L 246.953037 53.542121 
L 247.030808 53.537514 
L 247.108407 53.532923 
L 247.185832 53.528348 
L 247.263087 53.523787 
L 247.340171 53.519242 
L 247.417084 53.514711 
L 247.493829 53.510196 
L 247.570405 53.505695 
L 247.646813 53.501209 
L 247.723054 53.496738 
L 247.799129 53.492282 
L 247.875038 53.48784 
L 247.950783 53.483412 
L 248.026363 53.478999 
L 248.10178 53.4746 
L 248.177035 53.470215 
L 248.252127 53.465845 
L 248.327058 53.461489 
L 248.401828 53.457146 
L 248.476439 53.452818 
L 248.55089 53.448503 
L 248.625182 53.444202 
L 248.699317 53.439915 
L 248.773294 53.435642 
L 248.847115 53.431382 
L 248.92078 53.427135 
L 248.99429 53.422902 
L 249.067645 53.418683 
L 249.140846 53.414476 
L 249.213894 53.410283 
L 249.286789 53.406103 
L 249.359532 53.401936 
L 249.432124 53.397782 
L 249.504565 53.393641 
L 249.576856 53.389513 
L 249.648998 53.385397 
L 249.72099 53.381295 
L 249.792834 53.377205 
L 249.864531 53.373127 
L 249.93608 53.369062 
L 250.007483 53.36501 
L 250.07874 53.36097 
L 250.149852 53.356942 
L 250.220819 53.352927 
L 250.291642 53.348924 
L 250.362322 53.344933 
L 250.432858 53.340954 
L 250.503253 53.336987 
L 250.573505 53.333033 
L 250.643617 53.32909 
L 250.713587 53.325159 
L 250.783418 53.321239 
L 250.853109 53.317332 
L 250.922661 53.313436 
L 250.992074 53.309552 
L 251.06135 53.305679 
L 251.130489 53.301818 
L 251.19949 53.297969 
L 251.268356 53.29413 
L 251.337086 53.290303 
L 251.40568 53.286488 
L 251.47414 53.282683 
L 251.542466 53.27889 
L 251.610658 53.275108 
L 251.678718 53.271337 
L 251.746644 53.267577 
L 251.814439 53.263828 
L 251.882102 53.260089 
L 251.949634 53.256362 
L 252.017036 53.252645 
L 252.084307 53.24894 
L 252.15145 53.245245 
L 252.218463 53.24156 
L 252.285347 53.237886 
L 252.352104 53.234223 
L 252.418733 53.23057 
L 252.485235 53.226928 
L 252.551611 53.223296 
L 252.61786 53.219674 
L 252.683984 53.216063 
L 252.749983 53.212461 
L 252.815857 53.208871 
L 252.881607 53.20529 
L 252.947233 53.201719 
L 253.012736 53.198158 
L 253.078117 53.194608 
L 253.143375 53.191067 
L 253.208511 53.187536 
L 253.273525 53.184016 
L 253.338419 53.180505 
L 253.403192 53.177003 
L 253.467845 53.173512 
L 253.532379 53.17003 
L 253.596793 53.166558 
L 253.661089 53.163095 
L 253.725266 53.159642 
L 253.789325 53.156198 
L 253.853267 53.152764 
L 253.917092 53.14934 
L 253.980801 53.145924 
L 254.044393 53.142518 
L 254.10787 53.139122 
L 254.171231 53.135734 
L 254.234477 53.132356 
L 254.297609 53.128987 
L 254.360627 53.125627 
L 254.423531 53.122276 
L 254.486322 53.118934 
L 254.549 53.115602 
L 254.611566 53.112278 
L 254.674019 53.108963 
L 254.736361 53.105657 
L 254.798592 53.10236 
L 254.860712 53.099071 
L 254.922721 53.095792 
L 254.984621 53.092521 
L 255.046411 53.089259 
L 255.108091 53.086005 
L 255.169663 53.08276 
L 255.231126 53.079524 
L 255.292481 53.076296 
L 255.353729 53.073077 
L 255.414869 53.069866 
L 255.475902 53.066663 
L 255.536828 53.063469 
L 255.597648 53.060284 
L 255.658362 53.057106 
L 255.718971 53.053937 
L 255.779475 53.050776 
L 255.839874 53.047623 
L 255.900168 53.044479 
L 255.960359 53.041343 
L 256.020445 53.038214 
L 256.080429 53.035094 
L 256.140309 53.031982 
L 256.200087 53.028878 
L 256.259762 53.025782 
L 256.319336 53.022693 
L 256.378808 53.019613 
L 256.438179 53.016541 
L 256.497449 53.013476 
L 256.556618 53.010419 
L 256.615687 53.00737 
L 256.674657 53.004328 
L 256.733527 53.001295 
L 256.792297 52.998269 
L 256.850969 52.99525 
L 256.909542 52.992239 
L 256.968017 52.989236 
L 257.026394 52.98624 
L 257.084674 52.983252 
L 257.142856 52.980272 
L 257.200942 52.977298 
L 257.258931 52.974332 
L 257.316823 52.971374 
L 257.37462 52.968423 
L 257.432321 52.965479 
L 257.489927 52.962542 
L 257.547438 52.959613 
L 257.604854 52.956691 
L 257.662176 52.953776 
L 257.719404 52.950869 
L 257.776538 52.947968 
L 257.833579 52.945075 
L 257.890526 52.942188 
L 257.947381 52.939309 
L 258.004143 52.936437 
L 258.060813 52.933572 
L 258.117391 52.930713 
L 258.173878 52.927862 
L 258.230273 52.925017 
L 258.286577 52.92218 
L 258.34279 52.919349 
L 258.398913 52.916525 
L 258.454945 52.913708 
L 258.510888 52.910898 
L 258.566742 52.908094 
L 258.622506 52.905298 
L 258.67818 52.902508 
L 258.733767 52.899724 
L 258.789264 52.896947 
L 258.844674 52.894177 
L 258.899996 52.891413 
L 258.95523 52.888656 
L 259.010377 52.885906 
L 259.065436 52.883162 
L 259.120409 52.880424 
L 259.175296 52.877693 
L 259.230096 52.874969 
L 259.28481 52.87225 
L 259.339439 52.869539 
L 259.393982 52.866833 
L 259.44844 52.864134 
L 259.502813 52.861441 
L 259.557102 52.858755 
L 259.611306 52.856074 
L 259.665426 52.8534 
L 259.719462 52.850732 
L 259.773415 52.848071 
L 259.827284 52.845415 
L 259.88107 52.842766 
L 259.934774 52.840123 
L 259.988394 52.837485 
L 260.041933 52.834854 
L 260.095389 52.832229 
L 260.148764 52.82961 
L 260.202057 52.826997 
L 260.255269 52.82439 
L 260.3084 52.821789 
L 260.36145 52.819194 
L 260.414419 52.816605 
L 260.467308 52.814021 
L 260.520117 52.811444 
L 260.572846 52.808872 
L 260.625496 52.806306 
L 260.678066 52.803746 
L 260.730557 52.801192 
L 260.78297 52.798644 
L 260.835303 52.796101 
L 260.887558 52.793564 
L 260.939735 52.791033 
L 260.991835 52.788507 
L 261.043856 52.785987 
L 261.0958 52.783472 
L 261.147667 52.780964 
L 261.199456 52.77846 
L 261.251169 52.775963 
L 261.302806 52.773471 
L 261.354366 52.770984 
L 261.405849 52.768503 
L 261.457257 52.766027 
L 261.50859 52.763557 
L 261.559847 52.761093 
L 261.611029 52.758633 
L 261.662135 52.756179 
L 261.713167 52.753731 
L 261.764125 52.751288 
L 261.815008 52.74885 
L 261.865817 52.746418 
L 261.916552 52.74399 
L 261.967213 52.741569 
L 262.017801 52.739152 
L 262.068316 52.736741 
L 262.118757 52.734334 
L 262.169126 52.731934 
L 262.219422 52.729538 
L 262.269646 52.727147 
L 262.319797 52.724762 
L 262.369877 52.722382 
L 262.419884 52.720006 
L 262.46982 52.717636 
L 262.519685 52.715271 
L 262.569479 52.712912 
L 262.619201 52.710557 
L 262.668853 52.708207 
L 262.718434 52.705862 
L 262.767945 52.703522 
L 262.817385 52.701187 
L 262.866756 52.698857 
L 262.916057 52.696533 
L 262.965288 52.694212 
L 263.01445 52.691897 
L 263.063543 52.689587 
L 263.112566 52.687282 
L 263.161521 52.684981 
L 263.210408 52.682685 
L 263.259225 52.680395 
L 263.307975 52.678109 
L 263.356657 52.675827 
L 263.40527 52.673551 
L 263.453816 52.671279 
L 263.502295 52.669012 
L 263.550706 52.66675 
L 263.599051 52.664492 
L 263.647328 52.662239 
L 263.695538 52.659991 
L 263.743682 52.657747 
L 263.79176 52.655508 
L 263.839772 52.653274 
L 263.887717 52.651044 
L 263.935597 52.648819 
L 263.983411 52.646598 
L 264.031159 52.644382 
L 264.078843 52.642171 
L 264.126461 52.639964 
L 264.174014 52.637761 
L 264.221503 52.635563 
L 264.268927 52.63337 
L 264.316286 52.631181 
L 264.363582 52.628996 
L 264.410813 52.626816 
L 264.457981 52.624641 
L 264.505084 52.622469 
L 264.552125 52.620302 
L 264.599102 52.61814 
L 264.646015 52.615982 
L 264.692866 52.613828 
L 264.739654 52.611678 
L 264.786379 52.609533 
L 264.833042 52.607392 
L 264.879642 52.605256 
L 264.92618 52.603124 
L 264.972656 52.600995 
L 265.019071 52.598872 
L 265.065423 52.596752 
L 265.111714 52.594637 
L 265.157944 52.592526 
L 265.204113 52.590419 
L 265.25022 52.588316 
L 265.296267 52.586217 
L 265.342253 52.584123 
L 265.388178 52.582033 
L 265.434043 52.579946 
L 265.479848 52.577864 
L 265.525593 52.575786 
L 265.571278 52.573712 
L 265.616903 52.571642 
L 265.662468 52.569577 
L 265.707974 52.567515 
L 265.753421 52.565457 
L 265.798808 52.563403 
L 265.844137 52.561354 
L 265.889407 52.559308 
L 265.934618 52.557266 
L 265.97977 52.555229 
L 266.024865 52.553195 
L 266.069901 52.551165 
L 266.114878 52.549139 
L 266.159798 52.547117 
L 266.204661 52.545099 
L 266.249465 52.543084 
L 266.294212 52.541074 
L 266.338902 52.539067 
L 266.383534 52.537065 
L 266.42811 52.535066 
L 266.472629 52.533071 
L 266.517091 52.53108 
L 266.561496 52.529092 
L 266.605845 52.527109 
L 266.650137 52.525129 
L 266.694373 52.523153 
L 266.738554 52.52118 
L 266.782678 52.519212 
L 266.826747 52.517247 
L 266.87076 52.515286 
L 266.914718 52.513328 
L 266.95862 52.511375 
L 267.002467 52.509425 
L 267.046259 52.507478 
L 267.089996 52.505536 
L 267.133678 52.503596 
L 267.177306 52.501661 
L 267.220879 52.499729 
L 267.264398 52.497801 
L 267.307863 52.495876 
L 267.351273 52.493955 
L 267.39463 52.492038 
L 267.437932 52.490124 
L 267.481182 52.488214 
L 267.524377 52.486307 
L 267.567519 52.484404 
L 267.610608 52.482504 
L 267.653643 52.480608 
L 267.696626 52.478715 
L 267.739556 52.476826 
L 267.782433 52.474941 
L 267.825257 52.473058 
L 267.868028 52.47118 
L 267.910748 52.469304 
L 267.953415 52.467432 
L 267.99603 52.465564 
L 268.038593 52.463699 
L 268.081104 52.461837 
L 268.123563 52.459979 
L 268.165971 52.458124 
L 268.208327 52.456273 
L 268.250632 52.454425 
L 268.292886 52.45258 
L 268.335088 52.450739 
L 268.37724 52.448901 
L 268.41934 52.447066 
L 268.46139 52.445235 
L 268.503389 52.443407 
L 268.545338 52.441582 
L 268.587236 52.43976 
L 268.629084 52.437942 
L 268.670882 52.436127 
L 268.71263 52.434315 
L 268.754328 52.432507 
L 268.795976 52.430702 
L 268.837575 52.4289 
L 268.879124 52.427101 
L 268.920623 52.425305 
L 268.962073 52.423513 
L 269.003474 52.421724 
L 269.044826 52.419938 
L 269.086129 52.418155 
L 269.127383 52.416375 
L 269.168589 52.414599 
L 269.209746 52.412826 
L 269.250854 52.411055 
L 269.291914 52.409288 
L 269.332925 52.407524 
L 269.373889 52.405763 
L 269.414804 52.404006 
L 269.455672 52.402251 
L 269.496491 52.400499 
L 269.537263 52.398751 
L 269.577987 52.397005 
L 269.618664 52.395263 
L 269.659293 52.393524 
L 269.699876 52.391787 
L 269.740411 52.390054 
L 269.780899 52.388324 
L 269.821339 52.386596 
L 269.861734 52.384872 
L 269.902081 52.383151 
L 269.942382 52.381432 
L 269.982636 52.379717 
L 270.022844 52.378005 
L 270.063006 52.376295 
L 270.103121 52.374589 
L 270.14319 52.372885 
L 270.183214 52.371185 
L 270.223191 52.369487 
L 270.263123 52.367792 
L 270.303009 52.3661 
L 270.342849 52.364411 
L 270.382645 52.362725 
L 270.422394 52.361042 
L 270.462099 52.359362 
L 270.501758 52.357684 
L 270.541372 52.35601 
L 270.580941 52.354338 
L 270.620466 52.352669 
L 270.659946 52.351003 
L 270.699381 52.34934 
L 270.738771 52.347679 
L 270.778117 52.346022 
L 270.817419 52.344367 
L 270.856677 52.342715 
L 270.89589 52.341065 
L 270.93506 52.339419 
L 270.974185 52.337775 
L 271.013267 52.336134 
L 271.052305 52.334496 
L 271.091299 52.332861 
L 271.13025 52.331228 
L 271.169157 52.329598 
L 271.208021 52.327971 
L 271.246841 52.326346 
L 271.285619 52.324724 
L 271.324353 52.323105 
L 271.363045 52.321489 
L 271.401693 52.319875 
L 271.440299 52.318264 
L 271.478862 52.316656 
L 271.517383 52.31505 
L 271.555861 52.313447 
L 271.594296 52.311846 
L 271.63269 52.310249 
L 271.671041 52.308653 
L 271.70935 52.307061 
L 271.747617 52.305471 
L 271.785842 52.303884 
L 271.824025 52.302299 
L 271.862167 52.300717 
L 271.900266 52.299138 
L 271.938325 52.297561 
L 271.976341 52.295986 
L 272.014317 52.294415 
L 272.052251 52.292845 
L 272.090144 52.291279 
L 272.127995 52.289715 
L 272.165806 52.288153 
L 272.203576 52.286594 
L 272.241305 52.285038 
L 272.278993 52.283484 
L 272.31664 52.281932 
L 272.354247 52.280383 
L 272.391813 52.278837 
L 272.429339 52.277293 
L 272.466825 52.275751 
L 272.50427 52.274212 
L 272.541675 52.272676 
L 272.57904 52.271142 
L 272.616366 52.26961 
L 272.653651 52.268081 
L 272.690896 52.266554 
L 272.728102 52.26503 
L 272.765268 52.263508 
L 272.802395 52.261989 
L 272.839482 52.260472 
L 272.876529 52.258958 
L 272.913538 52.257446 
L 272.950507 52.255936 
L 272.987437 52.254429 
L 273.024327 52.252924 
L 273.061179 52.251421 
L 273.097992 52.249921 
L 273.134767 52.248423 
L 273.171502 52.246928 
L 273.208199 52.245435 
L 273.244857 52.243944 
L 273.281477 52.242456 
L 273.318058 52.24097 
L 273.354601 52.239486 
L 273.391106 52.238005 
L 273.427573 52.236525 
L 273.464002 52.235049 
L 273.500392 52.233574 
L 273.536745 52.232102 
L 273.573059 52.230632 
L 273.609336 52.229165 
L 273.645576 52.2277 
L 273.681778 52.226237 
L 273.717942 52.224776 
L 273.754068 52.223318 
L 273.790158 52.221862 
L 273.82621 52.220408 
L 273.862225 52.218956 
L 273.898202 52.217507 
L 273.934143 52.21606 
L 273.970046 52.214615 
L 274.005913 52.213172 
L 274.041743 52.211731 
L 274.077536 52.210293 
L 274.113292 52.208857 
L 274.149012 52.207423 
L 274.184695 52.205992 
L 274.220342 52.204562 
L 274.255953 52.203135 
L 274.291527 52.20171 
L 274.327064 52.200287 
L 274.362566 52.198866 
L 274.398032 52.197448 
L 274.433461 52.196031 
L 274.468855 52.194617 
L 274.504212 52.193205 
L 274.539534 52.191795 
L 274.57482 52.190387 
L 274.610071 52.188982 
L 274.645286 52.187578 
L 274.680465 52.186177 
L 274.715609 52.184777 
L 274.750717 52.18338 
L 274.785791 52.181985 
L 274.820829 52.180592 
L 274.855832 52.179201 
L 274.890799 52.177813 
L 274.925732 52.176426 
L 274.96063 52.175041 
L 274.96063 46.640707 
L 274.96063 46.640707 
L 274.925732 46.639322 
L 274.890799 46.637935 
L 274.855832 46.636547 
L 274.820829 46.635156 
L 274.785791 46.633763 
L 274.750717 46.632368 
L 274.715609 46.630971 
L 274.680465 46.629571 
L 274.645286 46.62817 
L 274.610071 46.626766 
L 274.57482 46.625361 
L 274.539534 46.623953 
L 274.504212 46.622543 
L 274.468855 46.621131 
L 274.433461 46.619717 
L 274.398032 46.6183 
L 274.362566 46.616882 
L 274.327064 46.615461 
L 274.291527 46.614038 
L 274.255953 46.612613 
L 274.220342 46.611186 
L 274.184695 46.609756 
L 274.149012 46.608325 
L 274.113292 46.606891 
L 274.077536 46.605455 
L 274.041743 46.604017 
L 274.005913 46.602576 
L 273.970046 46.601133 
L 273.934143 46.599689 
L 273.898202 46.598241 
L 273.862225 46.596792 
L 273.82621 46.59534 
L 273.790158 46.593886 
L 273.754068 46.59243 
L 273.717942 46.590972 
L 273.681778 46.589511 
L 273.645576 46.588048 
L 273.609336 46.586583 
L 273.573059 46.585116 
L 273.536745 46.583646 
L 273.500392 46.582174 
L 273.464002 46.580699 
L 273.427573 46.579223 
L 273.391106 46.577744 
L 273.354601 46.576262 
L 273.318058 46.574778 
L 273.281477 46.573292 
L 273.244857 46.571804 
L 273.208199 46.570313 
L 273.171502 46.56882 
L 273.134767 46.567325 
L 273.097992 46.565827 
L 273.061179 46.564327 
L 273.024327 46.562824 
L 272.987437 46.56132 
L 272.950507 46.559812 
L 272.913538 46.558302 
L 272.876529 46.55679 
L 272.839482 46.555276 
L 272.802395 46.553759 
L 272.765268 46.55224 
L 272.728102 46.550718 
L 272.690896 46.549194 
L 272.653651 46.547667 
L 272.616366 46.546138 
L 272.57904 46.544606 
L 272.541675 46.543072 
L 272.50427 46.541536 
L 272.466825 46.539997 
L 272.429339 46.538455 
L 272.391813 46.536911 
L 272.354247 46.535365 
L 272.31664 46.533816 
L 272.278993 46.532264 
L 272.241305 46.530711 
L 272.203576 46.529154 
L 272.165806 46.527595 
L 272.127995 46.526033 
L 272.090144 46.524469 
L 272.052251 46.522903 
L 272.014317 46.521334 
L 271.976341 46.519762 
L 271.938325 46.518187 
L 271.900266 46.516611 
L 271.862167 46.515031 
L 271.824025 46.513449 
L 271.785842 46.511864 
L 271.747617 46.510277 
L 271.70935 46.508687 
L 271.671041 46.507095 
L 271.63269 46.505499 
L 271.594296 46.503902 
L 271.555861 46.502301 
L 271.517383 46.500698 
L 271.478862 46.499092 
L 271.440299 46.497484 
L 271.401693 46.495873 
L 271.363045 46.494259 
L 271.324353 46.492643 
L 271.285619 46.491024 
L 271.246841 46.489402 
L 271.208021 46.487777 
L 271.169157 46.48615 
L 271.13025 46.48452 
L 271.091299 46.482887 
L 271.052305 46.481252 
L 271.013267 46.479614 
L 270.974185 46.477973 
L 270.93506 46.476329 
L 270.89589 46.474683 
L 270.856677 46.473033 
L 270.817419 46.471381 
L 270.778117 46.469726 
L 270.738771 46.468069 
L 270.699381 46.466408 
L 270.659946 46.464745 
L 270.620466 46.463079 
L 270.580941 46.46141 
L 270.541372 46.459738 
L 270.501758 46.458064 
L 270.462099 46.456386 
L 270.422394 46.454706 
L 270.382645 46.453023 
L 270.342849 46.451337 
L 270.303009 46.449648 
L 270.263123 46.447956 
L 270.223191 46.446261 
L 270.183214 46.444563 
L 270.14319 46.442863 
L 270.103121 46.441159 
L 270.063006 46.439453 
L 270.022844 46.437743 
L 269.982636 46.436031 
L 269.942382 46.434316 
L 269.902081 46.432597 
L 269.861734 46.430876 
L 269.821339 46.429152 
L 269.780899 46.427424 
L 269.740411 46.425694 
L 269.699876 46.423961 
L 269.659293 46.422224 
L 269.618664 46.420485 
L 269.577987 46.418743 
L 269.537263 46.416997 
L 269.496491 46.415249 
L 269.455672 46.413497 
L 269.414804 46.411742 
L 269.373889 46.409985 
L 269.332925 46.408224 
L 269.291914 46.40646 
L 269.250854 46.404693 
L 269.209746 46.402922 
L 269.168589 46.401149 
L 269.127383 46.399373 
L 269.086129 46.397593 
L 269.044826 46.39581 
L 269.003474 46.394024 
L 268.962073 46.392235 
L 268.920623 46.390443 
L 268.879124 46.388647 
L 268.837575 46.386848 
L 268.795976 46.385046 
L 268.754328 46.383241 
L 268.71263 46.381433 
L 268.670882 46.379621 
L 268.629084 46.377806 
L 268.587236 46.375988 
L 268.545338 46.374166 
L 268.503389 46.372341 
L 268.46139 46.370513 
L 268.41934 46.368682 
L 268.37724 46.366847 
L 268.335088 46.365009 
L 268.292886 46.363168 
L 268.250632 46.361323 
L 268.208327 46.359475 
L 268.165971 46.357624 
L 268.123563 46.355769 
L 268.081104 46.353911 
L 268.038593 46.352049 
L 267.99603 46.350184 
L 267.953415 46.348316 
L 267.910748 46.346444 
L 267.868028 46.344568 
L 267.825257 46.34269 
L 267.782433 46.340807 
L 267.739556 46.338922 
L 267.696626 46.337033 
L 267.653643 46.33514 
L 267.610608 46.333244 
L 267.567519 46.331344 
L 267.524377 46.329441 
L 267.481182 46.327534 
L 267.437932 46.325624 
L 267.39463 46.32371 
L 267.351273 46.321793 
L 267.307863 46.319872 
L 267.264398 46.317947 
L 267.220879 46.316019 
L 267.177306 46.314087 
L 267.133678 46.312152 
L 267.089996 46.310212 
L 267.046259 46.30827 
L 267.002467 46.306323 
L 266.95862 46.304373 
L 266.914718 46.30242 
L 266.87076 46.300462 
L 266.826747 46.298501 
L 266.782678 46.296536 
L 266.738554 46.294568 
L 266.694373 46.292595 
L 266.650137 46.290619 
L 266.605845 46.288639 
L 266.561496 46.286656 
L 266.517091 46.284668 
L 266.472629 46.282677 
L 266.42811 46.280682 
L 266.383534 46.278683 
L 266.338902 46.276681 
L 266.294212 46.274674 
L 266.249465 46.272664 
L 266.204661 46.270649 
L 266.159798 46.268631 
L 266.114878 46.266609 
L 266.069901 46.264583 
L 266.024865 46.262553 
L 265.97977 46.26052 
L 265.934618 46.258482 
L 265.889407 46.25644 
L 265.844137 46.254394 
L 265.798808 46.252345 
L 265.753421 46.250291 
L 265.707974 46.248233 
L 265.662468 46.246171 
L 265.616903 46.244106 
L 265.571278 46.242036 
L 265.525593 46.239962 
L 265.479848 46.237884 
L 265.434043 46.235802 
L 265.388178 46.233715 
L 265.342253 46.231625 
L 265.296267 46.229531 
L 265.25022 46.227432 
L 265.204113 46.225329 
L 265.157944 46.223222 
L 265.111714 46.221111 
L 265.065423 46.218996 
L 265.019071 46.216876 
L 264.972656 46.214753 
L 264.92618 46.212625 
L 264.879642 46.210492 
L 264.833042 46.208356 
L 264.786379 46.206215 
L 264.739654 46.20407 
L 264.692866 46.20192 
L 264.646015 46.199766 
L 264.599102 46.197608 
L 264.552125 46.195446 
L 264.505084 46.193279 
L 264.457981 46.191107 
L 264.410813 46.188932 
L 264.363582 46.186752 
L 264.316286 46.184567 
L 264.268927 46.182378 
L 264.221503 46.180185 
L 264.174014 46.177987 
L 264.126461 46.175784 
L 264.078843 46.173577 
L 264.031159 46.171366 
L 263.983411 46.16915 
L 263.935597 46.166929 
L 263.887717 46.164704 
L 263.839772 46.162474 
L 263.79176 46.16024 
L 263.743682 46.158001 
L 263.695538 46.155757 
L 263.647328 46.153509 
L 263.599051 46.151256 
L 263.550706 46.148998 
L 263.502295 46.146736 
L 263.453816 46.144469 
L 263.40527 46.142197 
L 263.356657 46.139921 
L 263.307975 46.137639 
L 263.259225 46.135353 
L 263.210408 46.133063 
L 263.161521 46.130767 
L 263.112566 46.128466 
L 263.063543 46.126161 
L 263.01445 46.123851 
L 262.965288 46.121536 
L 262.916057 46.119215 
L 262.866756 46.116891 
L 262.817385 46.114561 
L 262.767945 46.112226 
L 262.718434 46.109886 
L 262.668853 46.107541 
L 262.619201 46.105191 
L 262.569479 46.102836 
L 262.519685 46.100477 
L 262.46982 46.098112 
L 262.419884 46.095742 
L 262.369877 46.093366 
L 262.319797 46.090986 
L 262.269646 46.088601 
L 262.219422 46.08621 
L 262.169126 46.083814 
L 262.118757 46.081414 
L 262.068316 46.079007 
L 262.017801 46.076596 
L 261.967213 46.07418 
L 261.916552 46.071758 
L 261.865817 46.069331 
L 261.815008 46.066898 
L 261.764125 46.06446 
L 261.713167 46.062017 
L 261.662135 46.059569 
L 261.611029 46.057115 
L 261.559847 46.054656 
L 261.50859 46.052191 
L 261.457257 46.049721 
L 261.405849 46.047245 
L 261.354366 46.044764 
L 261.302806 46.042277 
L 261.251169 46.039785 
L 261.199456 46.037288 
L 261.147667 46.034784 
L 261.0958 46.032276 
L 261.043856 46.029761 
L 260.991835 46.027241 
L 260.939735 46.024715 
L 260.887558 46.022184 
L 260.835303 46.019647 
L 260.78297 46.017104 
L 260.730557 46.014556 
L 260.678066 46.012002 
L 260.625496 46.009442 
L 260.572846 46.006876 
L 260.520117 46.004304 
L 260.467308 46.001727 
L 260.414419 45.999143 
L 260.36145 45.996554 
L 260.3084 45.993959 
L 260.255269 45.991358 
L 260.202057 45.988751 
L 260.148764 45.986138 
L 260.095389 45.983519 
L 260.041933 45.980894 
L 259.988394 45.978263 
L 259.934774 45.975625 
L 259.88107 45.972982 
L 259.827284 45.970333 
L 259.773415 45.967677 
L 259.719462 45.965016 
L 259.665426 45.962348 
L 259.611306 45.959674 
L 259.557102 45.956993 
L 259.502813 45.954307 
L 259.44844 45.951614 
L 259.393982 45.948915 
L 259.339439 45.946209 
L 259.28481 45.943498 
L 259.230096 45.940779 
L 259.175296 45.938055 
L 259.120409 45.935324 
L 259.065436 45.932586 
L 259.010377 45.929842 
L 258.95523 45.927092 
L 258.899996 45.924335 
L 258.844674 45.921571 
L 258.789264 45.918801 
L 258.733767 45.916024 
L 258.67818 45.91324 
L 258.622506 45.91045 
L 258.566742 45.907654 
L 258.510888 45.90485 
L 258.454945 45.90204 
L 258.398913 45.899223 
L 258.34279 45.896399 
L 258.286577 45.893568 
L 258.230273 45.890731 
L 258.173878 45.887886 
L 258.117391 45.885035 
L 258.060813 45.882176 
L 258.004143 45.879311 
L 257.947381 45.876439 
L 257.890526 45.87356 
L 257.833579 45.870673 
L 257.776538 45.86778 
L 257.719404 45.864879 
L 257.662176 45.861972 
L 257.604854 45.859057 
L 257.547438 45.856135 
L 257.489927 45.853206 
L 257.432321 45.850269 
L 257.37462 45.847325 
L 257.316823 45.844374 
L 257.258931 45.841416 
L 257.200942 45.83845 
L 257.142856 45.835476 
L 257.084674 45.832496 
L 257.026394 45.829508 
L 256.968017 45.826512 
L 256.909542 45.823509 
L 256.850969 45.820498 
L 256.792297 45.817479 
L 256.733527 45.814453 
L 256.674657 45.81142 
L 256.615687 45.808378 
L 256.556618 45.805329 
L 256.497449 45.802272 
L 256.438179 45.799208 
L 256.378808 45.796135 
L 256.319336 45.793055 
L 256.259762 45.789966 
L 256.200087 45.78687 
L 256.140309 45.783766 
L 256.080429 45.780654 
L 256.020445 45.777534 
L 255.960359 45.774405 
L 255.900168 45.771269 
L 255.839874 45.768125 
L 255.779475 45.764972 
L 255.718971 45.761811 
L 255.658362 45.758642 
L 255.597648 45.755465 
L 255.536828 45.752279 
L 255.475902 45.749085 
L 255.414869 45.745882 
L 255.353729 45.742671 
L 255.292481 45.739452 
L 255.231126 45.736224 
L 255.169663 45.732988 
L 255.108091 45.729743 
L 255.046411 45.726489 
L 254.984621 45.723227 
L 254.922721 45.719956 
L 254.860712 45.716677 
L 254.798592 45.713388 
L 254.736361 45.710091 
L 254.674019 45.706785 
L 254.611566 45.70347 
L 254.549 45.700146 
L 254.486322 45.696814 
L 254.423531 45.693472 
L 254.360627 45.690121 
L 254.297609 45.686761 
L 254.234477 45.683392 
L 254.171231 45.680014 
L 254.10787 45.676626 
L 254.044393 45.67323 
L 253.980801 45.669824 
L 253.917092 45.666409 
L 253.853267 45.662984 
L 253.789325 45.65955 
L 253.725266 45.656106 
L 253.661089 45.652653 
L 253.596793 45.64919 
L 253.532379 45.645718 
L 253.467845 45.642236 
L 253.403192 45.638745 
L 253.338419 45.635244 
L 253.273525 45.631732 
L 253.208511 45.628212 
L 253.143375 45.624681 
L 253.078117 45.62114 
L 253.012736 45.61759 
L 252.947233 45.614029 
L 252.881607 45.610458 
L 252.815857 45.606877 
L 252.749983 45.603287 
L 252.683984 45.599685 
L 252.61786 45.596074 
L 252.551611 45.592452 
L 252.485235 45.58882 
L 252.418733 45.585178 
L 252.352104 45.581525 
L 252.285347 45.577862 
L 252.218463 45.574188 
L 252.15145 45.570503 
L 252.084307 45.566808 
L 252.017036 45.563103 
L 251.949634 45.559386 
L 251.882102 45.555659 
L 251.814439 45.55192 
L 251.746644 45.548171 
L 251.678718 45.544411 
L 251.610658 45.54064 
L 251.542466 45.536858 
L 251.47414 45.533065 
L 251.40568 45.52926 
L 251.337086 45.525445 
L 251.268356 45.521618 
L 251.19949 45.51778 
L 251.130489 45.51393 
L 251.06135 45.510069 
L 250.992074 45.506196 
L 250.922661 45.502312 
L 250.853109 45.498416 
L 250.783418 45.494509 
L 250.713587 45.490589 
L 250.643617 45.486658 
L 250.573505 45.482715 
L 250.503253 45.478761 
L 250.432858 45.474794 
L 250.362322 45.470815 
L 250.291642 45.466824 
L 250.220819 45.462821 
L 250.149852 45.458806 
L 250.07874 45.454778 
L 250.007483 45.450738 
L 249.93608 45.446686 
L 249.864531 45.442621 
L 249.792834 45.438543 
L 249.72099 45.434453 
L 249.648998 45.430351 
L 249.576856 45.426235 
L 249.504565 45.422107 
L 249.432124 45.417966 
L 249.359532 45.413812 
L 249.286789 45.409645 
L 249.213894 45.405465 
L 249.140846 45.401272 
L 249.067645 45.397065 
L 248.99429 45.392846 
L 248.92078 45.388613 
L 248.847115 45.384366 
L 248.773294 45.380106 
L 248.699317 45.375833 
L 248.625182 45.371546 
L 248.55089 45.367245 
L 248.476439 45.36293 
L 248.401828 45.358602 
L 248.327058 45.354259 
L 248.252127 45.349903 
L 248.177035 45.345533 
L 248.10178 45.341148 
L 248.026363 45.336749 
L 247.950783 45.332336 
L 247.875038 45.327908 
L 247.799129 45.323467 
L 247.723054 45.31901 
L 247.646813 45.314539 
L 247.570405 45.310053 
L 247.493829 45.305552 
L 247.417084 45.301037 
L 247.340171 45.296506 
L 247.263087 45.291961 
L 247.185832 45.2874 
L 247.108407 45.282825 
L 247.030808 45.278234 
L 246.953037 45.273627 
L 246.875092 45.269005 
L 246.796973 45.264368 
L 246.718678 45.259715 
L 246.640207 45.255046 
L 246.561559 45.250362 
L 246.482733 45.245661 
L 246.403729 45.240945 
L 246.324546 45.236212 
L 246.245182 45.231464 
L 246.165637 45.226699 
L 246.085911 45.221918 
L 246.006002 45.21712 
L 245.925909 45.212306 
L 245.845632 45.207475 
L 245.76517 45.202627 
L 245.684521 45.197763 
L 245.603686 45.192882 
L 245.522663 45.187984 
L 245.441452 45.183068 
L 245.360051 45.178135 
L 245.278459 45.173185 
L 245.196676 45.168218 
L 245.114701 45.163233 
L 245.032533 45.158231 
L 244.950171 45.15321 
L 244.867614 45.148172 
L 244.784861 45.143116 
L 244.701912 45.138042 
L 244.618764 45.13295 
L 244.535418 45.12784 
L 244.451872 45.122711 
L 244.368126 45.117563 
L 244.284178 45.112397 
L 244.200027 45.107213 
L 244.115673 45.102009 
L 244.031115 45.096787 
L 243.946351 45.091545 
L 243.861381 45.086285 
L 243.776203 45.081005 
L 243.690816 45.075706 
L 243.60522 45.070387 
L 243.519414 45.065048 
L 243.433396 45.05969 
L 243.347165 45.054312 
L 243.26072 45.048914 
L 243.174061 45.043496 
L 243.087186 45.038057 
L 243.000094 45.032598 
L 242.912784 45.027119 
L 242.825255 45.021619 
L 242.737505 45.016098 
L 242.649535 45.010557 
L 242.561342 45.004994 
L 242.472925 44.99941 
L 242.384284 44.993805 
L 242.295416 44.988178 
L 242.206322 44.98253 
L 242.117 44.97686 
L 242.027448 44.971168 
L 241.937666 44.965455 
L 241.847652 44.959719 
L 241.757406 44.953961 
L 241.666925 44.94818 
L 241.576209 44.942377 
L 241.485256 44.936551 
L 241.394065 44.930703 
L 241.302636 44.924831 
L 241.210966 44.918936 
L 241.119055 44.913018 
L 241.0269 44.907076 
L 240.934502 44.901111 
L 240.841858 44.895122 
L 240.748968 44.889109 
L 240.655829 44.883072 
L 240.562442 44.87701 
L 240.468803 44.870925 
L 240.374912 44.864814 
L 240.280768 44.858679 
L 240.18637 44.852519 
L 240.091715 44.846334 
L 239.996802 44.840123 
L 239.90163 44.833888 
L 239.806199 44.827626 
L 239.710505 44.821339 
L 239.614548 44.815026 
L 239.518326 44.808686 
L 239.421838 44.802321 
L 239.325083 44.795929 
L 239.228058 44.78951 
L 239.130763 44.783064 
L 239.033195 44.776591 
L 238.935354 44.770091 
L 238.837238 44.763564 
L 238.738845 44.757009 
L 238.640173 44.750426 
L 238.541222 44.743815 
L 238.441989 44.737175 
L 238.342473 44.730508 
L 238.242672 44.723811 
L 238.142585 44.717086 
L 238.04221 44.710332 
L 237.941545 44.703549 
L 237.840589 44.696736 
L 237.739339 44.689893 
L 237.637795 44.68302 
L 237.535955 44.676118 
L 237.433816 44.669185 
L 237.331378 44.662221 
L 237.228637 44.655227 
L 237.125593 44.648202 
L 237.022244 44.641145 
L 236.918588 44.634057 
L 236.814622 44.626937 
L 236.710346 44.619785 
L 236.605757 44.612602 
L 236.500854 44.605385 
L 236.395634 44.598136 
L 236.290096 44.590854 
L 236.184237 44.583539 
L 236.078057 44.57619 
L 235.971552 44.568808 
L 235.864721 44.561392 
L 235.757561 44.553942 
L 235.650072 44.546457 
L 235.54225 44.538937 
L 235.434094 44.531382 
L 235.325601 44.523793 
L 235.21677 44.516167 
L 235.107598 44.508506 
L 234.998084 44.500809 
L 234.888224 44.493075 
L 234.778018 44.485304 
L 234.667462 44.477497 
L 234.556554 44.469652 
L 234.445293 44.46177 
L 234.333676 44.45385 
L 234.221701 44.445892 
L 234.109364 44.437895 
L 233.996665 44.429859 
L 233.883601 44.421785 
L 233.770169 44.413671 
L 233.656367 44.405517 
L 233.542192 44.397323 
L 233.427642 44.389089 
L 233.312715 44.380814 
L 233.197408 44.372498 
L 233.081719 44.36414 
L 232.965644 44.355741 
L 232.849182 44.3473 
L 232.73233 44.338816 
L 232.615085 44.330289 
L 232.497445 44.321719 
L 232.379406 44.313106 
L 232.260967 44.304449 
L 232.142124 44.295747 
L 232.022875 44.287001 
L 231.903216 44.27821 
L 231.783146 44.269373 
L 231.662661 44.260491 
L 231.541759 44.251562 
L 231.420436 44.242587 
L 231.298689 44.233565 
L 231.176516 44.224495 
L 231.053914 44.215377 
L 230.930879 44.206211 
L 230.807409 44.196997 
L 230.6835 44.187733 
L 230.559149 44.178419 
L 230.434353 44.169056 
L 230.30911 44.159642 
L 230.183415 44.150177 
L 230.057265 44.140661 
L 229.930657 44.131093 
L 229.803589 44.121473 
L 229.676055 44.1118 
L 229.548054 44.102073 
L 229.419581 44.092293 
L 229.290633 44.082458 
L 229.161207 44.072569 
L 229.031298 44.062624 
L 228.900904 44.052624 
L 228.770021 44.042567 
L 228.638645 44.032453 
L 228.506772 44.022282 
L 228.374399 44.012053 
L 228.241521 44.001765 
L 228.108135 43.991419 
L 227.974237 43.981013 
L 227.839824 43.970546 
L 227.70489 43.960019 
L 227.569432 43.94943 
L 227.433446 43.93878 
L 227.296928 43.928066 
L 227.159873 43.91729 
L 227.022278 43.90645 
L 226.884138 43.895545 
L 226.745448 43.884575 
L 226.606205 43.87354 
L 226.466404 43.862438 
L 226.326041 43.851268 
L 226.18511 43.840032 
L 226.043607 43.828726 
L 225.901528 43.817352 
L 225.758868 43.805908 
L 225.615622 43.794393 
L 225.471785 43.782807 
L 225.327353 43.771148 
L 225.18232 43.759418 
L 225.036682 43.747613 
L 224.890433 43.735734 
L 224.743568 43.72378 
L 224.596082 43.71175 
L 224.44797 43.699644 
L 224.299226 43.68746 
L 224.149846 43.675197 
L 223.999822 43.662856 
L 223.849151 43.650434 
L 223.697826 43.637931 
L 223.545842 43.625347 
L 223.393192 43.61268 
L 223.239872 43.599929 
L 223.085875 43.587094 
L 222.931194 43.574173 
L 222.775825 43.561166 
L 222.619761 43.548072 
L 222.462995 43.534889 
L 222.305521 43.521616 
L 222.147333 43.508254 
L 221.988425 43.4948 
L 221.828789 43.481253 
L 221.66842 43.467613 
L 221.507309 43.453878 
L 221.345451 43.440048 
L 221.182838 43.42612 
L 221.019464 43.412095 
L 220.855321 43.397971 
L 220.690402 43.383746 
L 220.524699 43.36942 
L 220.358206 43.354991 
L 220.190914 43.340458 
L 220.022815 43.325821 
L 219.853903 43.311076 
L 219.684168 43.296224 
L 219.513604 43.281263 
L 219.342201 43.266191 
L 219.169953 43.251008 
L 218.996849 43.235711 
L 218.822882 43.2203 
L 218.648042 43.204773 
L 218.472322 43.189128 
L 218.295713 43.173364 
L 218.118204 43.15748 
L 217.939788 43.141474 
L 217.760454 43.125344 
L 217.580193 43.109089 
L 217.398996 43.092708 
L 217.216853 43.076197 
L 217.033754 43.059557 
L 216.849688 43.042785 
L 216.664646 43.025879 
L 216.478617 43.008837 
L 216.291591 42.991659 
L 216.103556 42.974341 
L 215.914502 42.956882 
L 215.724418 42.93928 
L 215.533293 42.921534 
L 215.341114 42.903641 
L 215.14787 42.885598 
L 214.953551 42.867405 
L 214.758142 42.849059 
L 214.561632 42.830557 
L 214.36401 42.811898 
L 214.165261 42.793079 
L 213.965373 42.774098 
L 213.764333 42.754953 
L 213.562127 42.735641 
L 213.358743 42.71616 
L 213.154165 42.696508 
L 212.948381 42.676681 
L 212.741375 42.656677 
L 212.533134 42.636494 
L 212.323642 42.616129 
L 212.112884 42.595579 
L 211.900844 42.574842 
L 211.687508 42.553913 
L 211.472859 42.532792 
L 211.256881 42.511474 
L 211.039558 42.489956 
L 210.820871 42.468236 
L 210.600805 42.446309 
L 210.379342 42.424174 
L 210.156464 42.401826 
L 209.932152 42.379262 
L 209.706389 42.356479 
L 209.479154 42.333473 
L 209.25043 42.31024 
L 209.020196 42.286776 
L 208.788432 42.263079 
L 208.555118 42.239143 
L 208.320232 42.214965 
L 208.083754 42.190541 
L 207.845662 42.165866 
L 207.605934 42.140937 
L 207.364547 42.115748 
L 207.121477 42.090296 
L 206.876702 42.064575 
L 206.630196 42.038581 
L 206.381937 42.012308 
L 206.131897 41.985753 
L 205.880053 41.95891 
L 205.626376 41.931774 
L 205.370841 41.904338 
L 205.113421 41.876599 
L 204.854086 41.848549 
L 204.592809 41.820184 
L 204.32956 41.791497 
L 204.064309 41.762482 
L 203.797025 41.733133 
L 203.527678 41.703443 
L 203.256234 41.673406 
L 202.982661 41.643015 
L 202.706926 41.612263 
L 202.428993 41.581143 
L 202.148828 41.549647 
L 201.866395 41.517768 
L 201.581656 41.485497 
L 201.294573 41.452827 
L 201.005108 41.41975 
L 200.713221 41.386257 
L 200.41887 41.352339 
L 200.122014 41.317987 
L 199.82261 41.283191 
L 199.520614 41.247943 
L 199.21598 41.212232 
L 198.908662 41.176048 
L 198.598613 41.13938 
L 198.285783 41.102218 
L 197.970121 41.064551 
L 197.651577 41.026366 
L 197.330097 40.987652 
L 197.005626 40.948397 
L 196.678109 40.908587 
L 196.347487 40.86821 
L 196.013701 40.827253 
L 195.67669 40.7857 
L 195.336392 40.743537 
L 194.99274 40.70075 
L 194.645669 40.657323 
L 194.29511 40.613239 
L 193.940992 40.568482 
L 193.583242 40.523035 
L 193.221784 40.47688 
L 192.856542 40.429998 
L 192.487434 40.38237 
L 192.114379 40.333975 
L 191.73729 40.284794 
L 191.35608 40.234804 
L 190.970658 40.183983 
L 190.58093 40.132308 
L 190.186797 40.079755 
L 189.78816 40.026298 
L 189.384915 39.971912 
L 188.976953 39.916569 
L 188.564163 39.86024 
L 188.146429 39.802896 
L 187.723632 39.744507 
L 187.295647 39.685039 
L 186.862345 39.62446 
L 186.423593 39.562735 
L 185.979252 39.499826 
L 185.529176 39.435695 
L 185.073218 39.370303 
L 184.61122 39.303608 
L 184.14302 39.235565 
L 183.66845 39.166129 
L 183.187334 39.095251 
L 182.699489 39.02288 
L 182.204724 38.948965 
L 181.70284 38.873448 
L 181.193629 38.796272 
L 180.676874 38.717374 
L 180.152348 38.63669 
L 179.619813 38.554151 
L 179.079022 38.469685 
L 178.529713 38.383216 
L 177.971616 38.294663 
L 177.404443 38.203941 
L 176.827896 38.110961 
L 176.241658 38.015627 
L 175.645398 37.917837 
L 175.038768 37.817486 
L 174.421401 37.714458 
L 173.792909 37.608633 
L 173.152885 37.499882 
L 172.500897 37.388068 
L 171.836489 37.273043 
L 171.159179 37.154651 
L 170.468457 37.032726 
L 169.76378 36.907087 
L 169.044572 36.777541 
L 168.310222 36.643883 
L 167.560078 36.50589 
L 166.793446 36.363322 
L 166.009585 36.215922 
L 165.207703 36.063409 
L 164.386951 35.90548 
L 163.54642 35.741809 
L 162.685133 35.572038 
L 161.802039 35.395778 
L 160.896005 35.212606 
L 159.965808 35.022056 
L 159.010122 34.823622 
L 158.027512 34.616743 
L 157.016417 34.400803 
L 155.975135 34.17512 
L 154.901809 33.938939 
L 153.794404 33.69142 
L 152.650683 33.431626 
L 151.468186 33.158508 
L 150.244188 32.870887 
L 148.975672 32.56743 
L 147.659277 32.246631 
L 146.291245 31.906772 
L 144.86736 31.545886 
L 143.382866 31.161713 
L 141.832373 30.751636 
L 140.209739 30.312606 
L 138.507921 29.841047 
L 136.718793 29.332733 
L 134.83291 28.782627 
L 132.839205 28.18467 
L 130.724597 27.531496 
L 128.473471 26.814048 
L 126.066976 26.021042 
L 123.482065 25.138212 
L 120.690147 24.147209 
L 117.655161 23.023969 
L 114.330709 21.736202 
L 110.655698 20.23937 
L 106.547385 18.470004 
L 101.889764 16.333899 
L 96.512935 13.683898 
L 90.153496 10.274219 
L 82.370173 5.655118 
L 72.335723 -1.113457 
L 58.19296 -12.467867 
L 34.015748 -38.097638 
z
" clip-path="url(#lln-p19171bcbec)" style="fill: #8d97a3; fill-opacity: 0.14"/>
   </g>
   <g id="lln-matplotlib.axis_1">
    <g id="lln-xtick_1">
     <g id="lln-line2d_1">
      <defs>
       <path id="lln-m8317c1aed1" d="M 0 0 
L 0 2 
" style="stroke: #5d6775; stroke-width: 0.5"/>
      </defs>
      <g>
       <use xlink:href="#lln-m8317c1aed1" x="34.015748" y="94.053543" style="fill: #5d6775; stroke: #5d6775; stroke-width: 0.5"/>
      </g>
     </g>
     <g id="lln-text_1">
      <text style="font-size: 6.2px; font-family: 'Inter', 'DejaVu Sans'; text-anchor: middle; fill: #5d6775" x="34.015748" y="102.064043" transform="rotate(-0 34.015748 102.064043)">1</text>
     </g>
    </g>
    <g id="lln-xtick_2">
     <g id="lln-line2d_2">
      <g>
       <use xlink:href="#lln-m8317c1aed1" x="114.330709" y="94.053543" style="fill: #5d6775; stroke: #5d6775; stroke-width: 0.5"/>
      </g>
     </g>
     <g id="lln-text_2">
      <text style="font-size: 6.2px; font-family: 'Inter', 'DejaVu Sans'; text-anchor: middle; fill: #5d6775" x="114.330709" y="102.064043" transform="rotate(-0 114.330709 102.064043)">10</text>
     </g>
    </g>
    <g id="lln-xtick_3">
     <g id="lln-line2d_3">
      <g>
       <use xlink:href="#lln-m8317c1aed1" x="194.645669" y="94.053543" style="fill: #5d6775; stroke: #5d6775; stroke-width: 0.5"/>
      </g>
     </g>
     <g id="lln-text_3">
      <text style="font-size: 6.2px; font-family: 'Inter', 'DejaVu Sans'; text-anchor: middle; fill: #5d6775" x="194.645669" y="102.064043" transform="rotate(-0 194.645669 102.064043)">100</text>
     </g>
    </g>
    <g id="lln-xtick_4">
     <g id="lln-line2d_4">
      <g>
       <use xlink:href="#lln-m8317c1aed1" x="274.96063" y="94.053543" style="fill: #5d6775; stroke: #5d6775; stroke-width: 0.5"/>
      </g>
     </g>
     <g id="lln-text_4">
      <text style="font-size: 6.2px; font-family: 'Inter', 'DejaVu Sans'; text-anchor: middle; fill: #5d6775" x="274.96063" y="102.064043" transform="rotate(-0 274.96063 102.064043)">1000</text>
     </g>
    </g>
    <g id="lln-xtick_5">
     <g id="lln-line2d_5">
      <defs>
       <path id="lln-m4ce71f5d89" d="M 0 0 
L 0 2 
" style="stroke: #5d6775; stroke-width: 0.6"/>
      </defs>
      <g>
       <use xlink:href="#lln-m4ce71f5d89" x="58.19296" y="94.053543" style="fill: #5d6775; stroke: #5d6775; stroke-width: 0.6"/>
      </g>
     </g>
    </g>
    <g id="lln-xtick_6">
     <g id="lln-line2d_6">
      <g>
       <use xlink:href="#lln-m4ce71f5d89" x="72.335723" y="94.053543" style="fill: #5d6775; stroke: #5d6775; stroke-width: 0.6"/>
      </g>
     </g>
    </g>
    <g id="lln-xtick_7">
     <g id="lln-line2d_7">
      <g>
       <use xlink:href="#lln-m4ce71f5d89" x="82.370173" y="94.053543" style="fill: #5d6775; stroke: #5d6775; stroke-width: 0.6"/>
      </g>
     </g>
    </g>
    <g id="lln-xtick_8">
     <g id="lln-line2d_8">
      <g>
       <use xlink:href="#lln-m4ce71f5d89" x="90.153496" y="94.053543" style="fill: #5d6775; stroke: #5d6775; stroke-width: 0.6"/>
      </g>
     </g>
    </g>
    <g id="lln-xtick_9">
     <g id="lln-line2d_9">
      <g>
       <use xlink:href="#lln-m4ce71f5d89" x="96.512935" y="94.053543" style="fill: #5d6775; stroke: #5d6775; stroke-width: 0.6"/>
      </g>
     </g>
    </g>
    <g id="lln-xtick_10">
     <g id="lln-line2d_10">
      <g>
       <use xlink:href="#lln-m4ce71f5d89" x="101.889764" y="94.053543" style="fill: #5d6775; stroke: #5d6775; stroke-width: 0.6"/>
      </g>
     </g>
    </g>
    <g id="lln-xtick_11">
     <g id="lln-line2d_11">
      <g>
       <use xlink:href="#lln-m4ce71f5d89" x="106.547385" y="94.053543" style="fill: #5d6775; stroke: #5d6775; stroke-width: 0.6"/>
      </g>
     </g>
    </g>
    <g id="lln-xtick_12">
     <g id="lln-line2d_12">
      <g>
       <use xlink:href="#lln-m4ce71f5d89" x="110.655698" y="94.053543" style="fill: #5d6775; stroke: #5d6775; stroke-width: 0.6"/>
      </g>
     </g>
    </g>
    <g id="lln-xtick_13">
     <g id="lln-line2d_13">
      <g>
       <use xlink:href="#lln-m4ce71f5d89" x="138.507921" y="94.053543" style="fill: #5d6775; stroke: #5d6775; stroke-width: 0.6"/>
      </g>
     </g>
    </g>
    <g id="lln-xtick_14">
     <g id="lln-line2d_14">
      <g>
       <use xlink:href="#lln-m4ce71f5d89" x="152.650683" y="94.053543" style="fill: #5d6775; stroke: #5d6775; stroke-width: 0.6"/>
      </g>
     </g>
    </g>
    <g id="lln-xtick_15">
     <g id="lln-line2d_15">
      <g>
       <use xlink:href="#lln-m4ce71f5d89" x="162.685133" y="94.053543" style="fill: #5d6775; stroke: #5d6775; stroke-width: 0.6"/>
      </g>
     </g>
    </g>
    <g id="lln-xtick_16">
     <g id="lln-line2d_16">
      <g>
       <use xlink:href="#lln-m4ce71f5d89" x="170.468457" y="94.053543" style="fill: #5d6775; stroke: #5d6775; stroke-width: 0.6"/>
      </g>
     </g>
    </g>
    <g id="lln-xtick_17">
     <g id="lln-line2d_17">
      <g>
       <use xlink:href="#lln-m4ce71f5d89" x="176.827896" y="94.053543" style="fill: #5d6775; stroke: #5d6775; stroke-width: 0.6"/>
      </g>
     </g>
    </g>
    <g id="lln-xtick_18">
     <g id="lln-line2d_18">
      <g>
       <use xlink:href="#lln-m4ce71f5d89" x="182.204724" y="94.053543" style="fill: #5d6775; stroke: #5d6775; stroke-width: 0.6"/>
      </g>
     </g>
    </g>
    <g id="lln-xtick_19">
     <g id="lln-line2d_19">
      <g>
       <use xlink:href="#lln-m4ce71f5d89" x="186.862345" y="94.053543" style="fill: #5d6775; stroke: #5d6775; stroke-width: 0.6"/>
      </g>
     </g>
    </g>
    <g id="lln-xtick_20">
     <g id="lln-line2d_20">
      <g>
       <use xlink:href="#lln-m4ce71f5d89" x="190.970658" y="94.053543" style="fill: #5d6775; stroke: #5d6775; stroke-width: 0.6"/>
      </g>
     </g>
    </g>
    <g id="lln-xtick_21">
     <g id="lln-line2d_21">
      <g>
       <use xlink:href="#lln-m4ce71f5d89" x="218.822882" y="94.053543" style="fill: #5d6775; stroke: #5d6775; stroke-width: 0.6"/>
      </g>
     </g>
    </g>
    <g id="lln-xtick_22">
     <g id="lln-line2d_22">
      <g>
       <use xlink:href="#lln-m4ce71f5d89" x="232.965644" y="94.053543" style="fill: #5d6775; stroke: #5d6775; stroke-width: 0.6"/>
      </g>
     </g>
    </g>
    <g id="lln-xtick_23">
     <g id="lln-line2d_23">
      <g>
       <use xlink:href="#lln-m4ce71f5d89" x="243.000094" y="94.053543" style="fill: #5d6775; stroke: #5d6775; stroke-width: 0.6"/>
      </g>
     </g>
    </g>
    <g id="lln-xtick_24">
     <g id="lln-line2d_24">
      <g>
       <use xlink:href="#lln-m4ce71f5d89" x="250.783418" y="94.053543" style="fill: #5d6775; stroke: #5d6775; stroke-width: 0.6"/>
      </g>
     </g>
    </g>
    <g id="lln-xtick_25">
     <g id="lln-line2d_25">
      <g>
       <use xlink:href="#lln-m4ce71f5d89" x="257.142856" y="94.053543" style="fill: #5d6775; stroke: #5d6775; stroke-width: 0.6"/>
      </g>
     </g>
    </g>
    <g id="lln-xtick_26">
     <g id="lln-line2d_26">
      <g>
       <use xlink:href="#lln-m4ce71f5d89" x="262.519685" y="94.053543" style="fill: #5d6775; stroke: #5d6775; stroke-width: 0.6"/>
      </g>
     </g>
    </g>
    <g id="lln-xtick_27">
     <g id="lln-line2d_27">
      <g>
       <use xlink:href="#lln-m4ce71f5d89" x="267.177306" y="94.053543" style="fill: #5d6775; stroke: #5d6775; stroke-width: 0.6"/>
      </g>
     </g>
    </g>
    <g id="lln-xtick_28">
     <g id="lln-line2d_28">
      <g>
       <use xlink:href="#lln-m4ce71f5d89" x="271.285619" y="94.053543" style="fill: #5d6775; stroke: #5d6775; stroke-width: 0.6"/>
      </g>
     </g>
    </g>
    <g id="lln-text_5">
     <text style="font-size: 6.6px; font-family: 'Inter', 'DejaVu Sans'; text-anchor: middle; fill: #5d6775" x="154.488189" y="112.424637" transform="rotate(-0 154.488189 112.424637)">число бросков n (логарифмическая шкала)</text>
    </g>
   </g>
   <g id="lln-matplotlib.axis_2">
    <g id="lln-ytick_1">
     <g id="lln-line2d_29">
      <path d="M 34.015748 94.053543 
L 274.96063 94.053543 
" clip-path="url(#lln-p19171bcbec)" style="fill: none; stroke: #e6e9ed; stroke-width: 0.5; stroke-linecap: round"/>
     </g>
     <g id="lln-line2d_30">
      <defs>
       <path id="lln-m814daea6f0" d="M 0 0 
L -2 0 
" style="stroke: #5d6775; stroke-width: 0.5"/>
      </defs>
      <g>
       <use xlink:href="#lln-m814daea6f0" x="34.015748" y="94.053543" style="fill: #5d6775; stroke: #5d6775; stroke-width: 0.5"/>
      </g>
     </g>
     <g id="lln-text_6">
      <text style="font-size: 6.2px; font-family: 'Inter', 'DejaVu Sans'; text-anchor: end; fill: #5d6775" x="30.515748" y="96.308793" transform="rotate(-0 30.515748 96.308793)">0</text>
     </g>
    </g>
    <g id="lln-ytick_2">
     <g id="lln-line2d_31">
      <path d="M 34.015748 71.730709 
L 274.96063 71.730709 
" clip-path="url(#lln-p19171bcbec)" style="fill: none; stroke: #e6e9ed; stroke-width: 0.5; stroke-linecap: round"/>
     </g>
     <g id="lln-line2d_32">
      <g>
       <use xlink:href="#lln-m814daea6f0" x="34.015748" y="71.730709" style="fill: #5d6775; stroke: #5d6775; stroke-width: 0.5"/>
      </g>
     </g>
     <g id="lln-text_7">
      <text style="font-size: 6.2px; font-family: 'Inter', 'DejaVu Sans'; text-anchor: end; fill: #5d6775" x="30.515748" y="73.985959" transform="rotate(-0 30.515748 73.985959)">0,25</text>
     </g>
    </g>
    <g id="lln-ytick_3">
     <g id="lln-line2d_33">
      <path d="M 34.015748 49.407874 
L 274.96063 49.407874 
" clip-path="url(#lln-p19171bcbec)" style="fill: none; stroke: #e6e9ed; stroke-width: 0.5; stroke-linecap: round"/>
     </g>
     <g id="lln-line2d_34">
      <g>
       <use xlink:href="#lln-m814daea6f0" x="34.015748" y="49.407874" style="fill: #5d6775; stroke: #5d6775; stroke-width: 0.5"/>
      </g>
     </g>
     <g id="lln-text_8">
      <text style="font-size: 6.2px; font-family: 'Inter', 'DejaVu Sans'; text-anchor: end; fill: #5d6775" x="30.515748" y="51.663124" transform="rotate(-0 30.515748 51.663124)">0,5</text>
     </g>
    </g>
    <g id="lln-ytick_4">
     <g id="lln-line2d_35">
      <path d="M 34.015748 27.085039 
L 274.96063 27.085039 
" clip-path="url(#lln-p19171bcbec)" style="fill: none; stroke: #e6e9ed; stroke-width: 0.5; stroke-linecap: round"/>
     </g>
     <g id="lln-line2d_36">
      <g>
       <use xlink:href="#lln-m814daea6f0" x="34.015748" y="27.085039" style="fill: #5d6775; stroke: #5d6775; stroke-width: 0.5"/>
      </g>
     </g>
     <g id="lln-text_9">
      <text style="font-size: 6.2px; font-family: 'Inter', 'DejaVu Sans'; text-anchor: end; fill: #5d6775" x="30.515748" y="29.340289" transform="rotate(-0 30.515748 29.340289)">0,75</text>
     </g>
    </g>
    <g id="lln-ytick_5">
     <g id="lln-line2d_37">
      <path d="M 34.015748 4.762205 
L 274.96063 4.762205 
" clip-path="url(#lln-p19171bcbec)" style="fill: none; stroke: #e6e9ed; stroke-width: 0.5; stroke-linecap: round"/>
     </g>
     <g id="lln-line2d_38">
      <g>
       <use xlink:href="#lln-m814daea6f0" x="34.015748" y="4.762205" style="fill: #5d6775; stroke: #5d6775; stroke-width: 0.5"/>
      </g>
     </g>
     <g id="lln-text_10">
      <text style="font-size: 6.2px; font-family: 'Inter', 'DejaVu Sans'; text-anchor: end; fill: #5d6775" x="30.515748" y="7.017455" transform="rotate(-0 30.515748 7.017455)">1</text>
     </g>
    </g>
    <g id="lln-text_11">
     <text style="font-size: 6.6px; font-family: 'Inter', 'DejaVu Sans'; text-anchor: middle; fill: #5d6775" x="12.011373" y="49.407874" transform="rotate(-90 12.011373 49.407874)">доля орлов</text>
    </g>
   </g>
   <g id="lln-line2d_39">
    <path d="M 34.015748 4.762205 
L 58.19296 49.407874 
L 72.335723 64.289764 
L 82.370173 71.730709 
L 90.153496 76.195276 
L 96.512935 64.289764 
L 101.889764 55.785827 
L 106.547385 49.407874 
L 110.655698 54.368504 
L 114.330709 58.337008 
L 117.655161 61.583966 
L 120.690147 64.289764 
L 123.482065 59.710721 
L 126.066976 62.16378 
L 130.724597 66.15 
L 134.83291 59.329134 
L 138.507921 62.801575 
L 141.832373 65.642663 
L 144.86736 60.569291 
L 147.659277 63.145003 
L 150.244188 58.974803 
L 151.468186 60.184415 
L 154.901809 54.988583 
L 155.975135 53.466571 
L 158.027512 55.785827 
L 160.896005 51.757646 
L 161.802039 50.552635 
L 162.685133 51.640157 
L 163.54642 50.496793 
L 165.207703 52.522688 
L 166.793446 50.4 
L 169.76378 53.963555 
L 171.836489 51.125015 
L 173.792909 53.466571 
L 174.421401 52.59685 
L 176.241658 54.704818 
L 177.404443 53.067355 
L 179.079022 54.988583 
L 181.70284 51.34899 
L 182.204724 51.959055 
L 183.187334 50.648031 
L 184.61122 52.384252 
L 185.073218 51.757646 
L 185.529176 52.306943 
L 186.423593 51.103279 
L 187.295647 52.16378 
L 188.564163 50.470866 
L 188.976953 50.983604 
L 189.384915 50.446145 
L 189.78816 50.94738 
L 190.58093 49.909511 
L 190.970658 50.4 
L 191.73729 49.407874 
L 192.114379 49.887935 
L 192.487434 49.407874 
L 193.221784 50.337992 
L 194.29511 48.956908 
L 194.645669 49.407874 
L 194.99274 48.965838 
L 196.347487 50.683465 
L 197.005626 49.825123 
L 197.330097 50.234646 
L 197.970121 49.407874 
L 198.598613 50.205118 
L 199.21598 49.407874 
L 200.122014 50.552635 
L 200.713221 49.783048 
L 201.005108 50.151969 
L 201.294573 49.776846 
L 201.866395 50.496793 
L 202.148828 50.127965 
L 202.428993 50.47937 
L 202.706926 50.116535 
L 202.982661 50.462496 
L 203.797025 49.407874 
L 204.592809 50.414919 
L 205.113421 49.738583 
L 205.370841 50.064428 
L 207.845662 46.961536 
L 208.083754 47.28189 
L 208.555118 46.711156 
L 208.788432 47.026772 
L 209.020196 46.746874 
L 210.156464 48.263113 
L 210.379342 47.986037 
L 210.600805 48.277604 
L 211.039558 47.733661 
L 212.533134 49.675213 
L 213.562127 48.369603 
L 213.965373 48.894705 
L 214.953551 47.661954 
L 215.341114 48.174568 
L 215.724418 47.700116 
L 216.103556 48.201234 
L 216.291591 47.967691 
L 216.478617 48.21414 
L 217.033754 47.528056 
L 217.216853 47.771645 
L 217.398996 47.547638 
L 217.580193 47.788601 
L 217.939788 47.347305 
L 218.472322 48.054975 
L 218.648042 47.837423 
L 218.822882 48.068504 
L 218.996849 47.85305 
L 219.169953 48.081765 
L 219.853903 47.240609 
L 220.190914 47.690733 
L 220.358206 47.485333 
L 220.524699 47.707087 
L 220.855321 47.301946 
L 221.345451 47.954294 
L 221.66842 47.55621 
L 221.828789 47.769501 
L 221.988425 47.57312 
L 222.305521 47.993758 
L 222.462995 47.799021 
L 223.085875 48.617685 
L 223.239872 48.424489 
L 224.149846 49.599486 
L 224.299226 49.407874 
L 224.44797 49.597856 
L 225.18232 48.66378 
L 225.327353 48.852119 
L 225.471785 48.669929 
L 225.615622 48.856693 
L 226.043607 48.318955 
L 226.18511 48.504116 
L 226.745448 47.807033 
L 226.884138 47.990551 
L 227.022278 47.819688 
L 227.159873 48.001711 
L 227.296928 47.832145 
L 227.839824 48.545989 
L 227.974237 48.377589 
L 228.241521 48.726261 
L 228.506772 48.3932 
L 228.638645 48.565503 
L 228.900904 48.237388 
L 229.031298 48.408344 
L 229.161207 48.246091 
L 229.290633 48.415748 
L 229.419581 48.254665 
L 229.676055 48.590188 
L 229.930657 48.271439 
L 230.434353 48.927813 
L 230.6835 48.613467 
L 230.807409 48.774602 
L 231.053914 48.464656 
L 231.541759 49.097835 
L 231.783146 48.792072 
L 232.022875 49.102082 
L 232.142124 48.950751 
L 232.965644 50.00315 
L 233.542192 49.261495 
L 233.656367 49.407874 
L 233.770169 49.262448 
L 233.883601 49.407874 
L 234.109364 49.119837 
L 234.221701 49.264319 
L 234.556554 48.839139 
L 234.778018 49.125306 
L 234.998084 48.846293 
L 235.107598 48.988009 
L 235.21677 48.849803 
L 235.434094 49.130572 
L 235.650072 48.856693 
L 235.864721 49.133974 
L 236.290096 48.596135 
L 236.395634 48.733468 
L 236.500854 48.601025 
L 237.125593 49.407874 
L 237.433816 49.015097 
L 237.637795 49.277712 
L 237.840589 49.019651 
L 238.142585 49.407874 
L 238.441989 49.026287 
L 238.541222 49.154205 
L 238.640173 49.028449 
L 238.837238 49.282112 
L 238.935354 49.157056 
L 239.228058 49.532235 
L 239.325083 49.407874 
L 239.421838 49.531546 
L 239.614548 49.284883 
L 239.996802 49.772825 
L 240.091715 49.650514 
L 240.18637 49.770847 
L 240.280768 49.649202 
L 240.374912 49.76889 
L 240.468803 49.647904 
L 240.934502 50.236839 
L 241.210966 49.877828 
L 241.302636 49.993775 
L 241.394065 49.875368 
L 241.485256 49.990716 
L 241.937666 49.407874 
L 242.027448 49.522644 
L 242.117 49.407874 
L 242.206322 49.522057 
L 242.472925 49.181246 
L 242.649535 49.407874 
L 242.825255 49.183524 
L 242.912784 49.29598 
L 243.000094 49.184646 
L 243.087186 49.296538 
L 243.26072 49.075524 
L 243.60522 49.517569 
L 243.690816 49.407874 
L 243.776203 49.517032 
L 243.861381 49.407874 
L 243.946351 49.516501 
L 244.031115 49.407874 
L 244.115673 49.515975 
L 244.200027 49.407874 
L 244.618764 49.940639 
L 244.784861 49.726014 
L 244.950171 49.935601 
L 245.196676 49.617478 
L 245.278459 49.721544 
L 245.360051 49.616499 
L 245.522663 49.823183 
L 245.603686 49.718633 
L 245.76517 49.923413 
L 245.845632 49.819355 
L 246.006002 50.022264 
L 246.085911 49.918694 
L 246.324546 50.219613 
L 246.482733 50.013924 
L 246.875092 50.506537 
L 246.953037 50.404429 
L 247.030808 50.501643 
L 247.185832 50.298808 
L 247.263087 50.39561 
L 247.417084 50.194582 
L 247.570405 50.386946 
L 247.646813 50.28711 
L 247.723054 50.38267 
L 247.950783 50.085791 
L 248.10178 50.275716 
L 248.177035 50.177627 
L 248.327058 50.365936 
L 248.476439 50.171048 
L 248.699317 50.450554 
L 249.067645 49.970635 
L 249.213894 50.155082 
L 249.359532 49.965945 
L 249.432124 50.057603 
L 249.576856 49.870045 
L 249.648998 49.961333 
L 249.72099 49.868139 
L 249.792834 49.959055 
L 250.07874 49.590101 
L 250.291642 49.86067 
L 250.573505 49.677365 
L 250.643617 49.766474 
L 250.713587 49.676285 
L 251.06135 49.407874 
L 251.130489 49.496281 
L 251.19949 49.407874 
L 251.268356 49.319815 
L 251.337086 49.407874 
L 251.542466 49.669982 
L 251.610658 49.582271 
L 251.678718 49.494903 
L 251.746644 49.581593 
L 252.218463 50.00772 
L 252.352104 49.834697 
L 252.418733 49.919084 
L 252.683984 50.253436 
L 252.749983 50.167441 
L 253.143375 49.825123 
L 253.208511 49.907639 
L 253.273525 49.823569 
L 253.725266 49.407874 
L 254.044393 49.651839 
L 254.234477 49.407874 
L 254.297609 49.488608 
L 254.360627 49.56905 
L 254.423531 49.488317 
L 254.611566 49.407874 
L 254.674019 49.487741 
L 254.736361 49.407874 
L 254.798592 49.328292 
L 254.860712 49.407874 
L 255.108091 49.565633 
L 255.292481 49.486337 
L 255.536828 49.641621 
L 255.960359 49.253923 
L 256.020445 49.331031 
L 256.080429 49.254452 
L 256.259762 49.026287 
L 256.319336 49.103125 
L 256.674657 49.407874 
L 257.026394 49.109241 
L 257.200942 49.185017 
L 257.432321 49.038902 
L 257.489927 49.113183 
L 257.547438 49.040117 
L 257.833579 48.82427 
L 257.890526 48.898054 
L 257.947381 48.826171 
L 258.117391 48.756641 
L 258.398913 48.977208 
L 258.566742 48.907843 
L 258.899996 49.195613 
L 259.230096 48.917262 
L 259.502813 49.129708 
L 259.557102 49.060707 
L 259.611306 49.130572 
L 259.773415 49.200862 
L 259.934774 49.133131 
L 260.148764 49.407874 
L 260.202057 49.339713 
L 260.255269 49.271759 
L 260.3084 49.33992 
L 260.414419 49.475622 
L 260.467308 49.407874 
L 260.625496 49.340535 
L 260.991835 49.674415 
L 261.043856 49.607482 
L 261.0958 49.673622 
L 261.457257 49.999643 
L 261.764125 49.733755 
L 262.169126 50.245383 
L 262.219422 50.179845 
L 262.319797 50.049335 
L 262.369877 50.112469 
L 262.569479 50.235825 
L 262.767945 50.104473 
L 262.965288 50.226483 
L 263.01445 50.162449 
L 263.063543 50.22418 
L 263.210408 50.408337 
L 263.259225 50.344496 
L 263.743682 49.838936 
L 263.887717 49.898486 
L 263.935597 49.83657 
L 263.983411 49.897142 
L 264.031159 49.957547 
L 264.078843 49.895805 
L 264.126461 49.834231 
L 264.174014 49.894475 
L 264.221503 49.954556 
L 264.268927 49.893153 
L 264.457981 49.769866 
L 264.646015 49.887935 
L 264.879642 49.705909 
L 264.92618 49.765039 
L 264.972656 49.705115 
L 265.065423 49.585745 
L 265.111714 49.644721 
L 265.342253 49.819626 
L 265.388178 49.76034 
L 265.434043 49.818544 
L 265.571278 49.992241 
L 265.616903 49.933117 
L 265.889407 49.697405 
L 265.97977 49.812169 
L 266.024865 49.753964 
L 266.294212 49.52235 
L 266.338902 49.579368 
L 266.383534 49.522057 
L 266.561496 49.294272 
L 266.605845 49.351145 
L 266.738554 49.520901 
L 266.782678 49.464316 
L 267.002467 49.295699 
L 267.177306 49.407874 
L 267.220879 49.352137 
L 267.264398 49.407874 
L 267.567519 49.683805 
L 267.610608 49.628346 
L 267.653643 49.683125 
L 267.782433 49.846652 
L 267.825257 49.791334 
L 267.868028 49.736151 
L 267.910748 49.790395 
L 268.081104 50.00605 
L 268.123563 49.951009 
L 268.250632 49.786686 
L 268.292886 49.840278 
L 268.46139 50.053354 
L 268.503389 49.998852 
L 268.545338 49.944481 
L 268.587236 49.997433 
L 268.629084 50.050258 
L 268.670882 49.996021 
L 268.879124 49.833071 
L 269.003474 49.990439 
L 269.044826 49.936851 
L 269.168589 49.882267 
L 269.414804 50.088289 
L 269.455672 50.035214 
L 269.496491 50.086697 
L 269.780899 50.34015 
L 269.821339 50.287337 
L 269.861734 50.337992 
L 269.942382 50.438952 
L 269.982636 50.386268 
L 270.14319 50.279259 
L 270.303009 50.47937 
L 270.342849 50.427182 
L 270.462099 50.271328 
L 270.501758 50.321081 
L 270.541372 50.37072 
L 270.580941 50.31901 
L 271.052305 49.807388 
L 271.401693 50.149496 
L 271.63269 49.948141 
L 271.70935 50.044969 
L 271.747617 49.995317 
L 271.824025 49.896339 
L 271.862167 49.944598 
L 271.900266 49.992752 
L 271.938325 49.943427 
L 271.976341 49.89421 
L 272.014317 49.942262 
L 272.165806 50.036686 
L 272.31664 49.93765 
L 272.466825 50.031283 
L 272.616366 49.933117 
L 272.765268 50.025972 
L 272.839482 49.929768 
L 272.876529 49.976609 
L 273.134767 50.207638 
L 273.171502 50.159801 
L 273.208199 50.205956 
L 273.244857 50.252015 
L 273.281477 50.204282 
L 273.464002 50.060316 
L 273.82621 50.422548 
L 274.041743 50.232948 
L 274.113292 50.322744 
L 274.149012 50.276111 
L 274.255953 50.227897 
L 274.291527 50.272571 
L 274.327064 50.317154 
L 274.362566 50.270812 
L 274.433461 50.178408 
L 274.504212 50.267314 
L 274.539534 50.311633 
L 274.57482 50.265576 
L 274.750717 50.216347 
L 274.855832 50.348254 
L 274.890799 50.302577 
L 274.96063 50.211496 
L 274.96063 50.211496 
" clip-path="url(#lln-p19171bcbec)" style="fill: none; stroke: #2a78d6; stroke-linecap: round"/>
   </g>
   <g id="lln-line2d_40">
    <path d="M 34.015748 94.053543 
L 58.19296 49.407874 
L 72.335723 64.289764 
L 82.370173 71.730709 
L 90.153496 76.195276 
L 96.512935 79.171654 
L 101.889764 81.297638 
L 106.547385 82.892126 
L 110.655698 74.211024 
L 114.330709 67.266142 
L 117.655161 61.583966 
L 120.690147 56.848819 
L 123.482065 59.710721 
L 126.066976 62.16378 
L 130.724597 66.15 
L 132.839205 62.538953 
L 134.83291 64.289764 
L 136.718793 61.156734 
L 140.209739 64.289764 
L 143.382866 59.113454 
L 144.86736 56.848819 
L 146.291245 58.337008 
L 148.975672 54.368504 
L 150.244188 55.785827 
L 151.468186 54.026392 
L 152.650683 55.36063 
L 154.901809 52.198228 
L 155.975135 53.466571 
L 158.027512 50.683465 
L 159.965808 53.027793 
L 162.685133 49.407874 
L 164.386951 51.533858 
L 166.793446 48.415748 
L 169.044572 51.26811 
L 170.468457 49.407874 
L 172.500897 51.934987 
L 173.792909 50.219613 
L 176.241658 53.191405 
L 176.827896 52.384252 
L 179.619813 55.589582 
L 180.676874 54.072347 
L 181.193629 54.660306 
L 181.70284 53.937145 
L 183.187334 55.608661 
L 183.66845 54.912135 
L 184.61122 55.955906 
L 185.529176 54.626199 
L 185.979252 55.131678 
L 186.423593 54.49409 
L 186.862345 54.988583 
L 187.723632 53.763549 
L 188.146429 54.248971 
L 188.564163 53.659843 
L 188.976953 54.135063 
L 189.384915 53.56096 
L 189.78816 54.026392 
L 191.35608 51.860933 
L 191.73729 52.319548 
L 192.856542 50.817737 
L 194.29511 52.564639 
L 194.99274 51.618056 
L 195.336392 52.03409 
L 198.598613 47.813386 
L 198.908662 47.432402 
L 199.520614 48.243204 
L 199.82261 47.868368 
L 200.122014 48.263113 
L 200.41887 47.894461 
L 200.713221 48.282353 
L 201.581656 47.212185 
L 202.148828 47.967691 
L 202.706926 47.28189 
L 203.256234 48.012697 
L 203.527678 47.677422 
L 204.064309 48.385454 
L 204.592809 47.729465 
L 206.131897 49.729066 
L 206.381937 49.407874 
L 206.630196 49.72451 
L 206.876702 49.407874 
L 207.121477 49.720081 
L 207.364547 49.407874 
L 207.605934 49.715775 
L 207.845662 49.407874 
L 208.083754 49.711586 
L 208.320232 49.407874 
L 209.020196 50.294874 
L 209.25043 49.995317 
L 209.932152 50.848057 
L 210.156464 50.552635 
L 210.820871 51.373407 
L 211.039558 51.082087 
L 211.687508 51.872972 
L 211.900844 51.585712 
L 212.112884 51.843092 
L 212.741375 51.002362 
L 212.948381 51.257103 
L 213.154165 50.983604 
L 215.914502 54.260664 
L 216.103556 53.993105 
L 216.291591 54.208484 
L 216.478617 53.944065 
L 217.033754 54.577373 
L 217.398996 54.058465 
L 217.580193 54.265693 
L 217.939788 53.757965 
L 218.118204 53.963555 
L 218.295713 53.713802 
L 219.169953 54.71231 
L 219.513604 54.222603 
L 219.684168 54.4169 
L 219.853903 54.175858 
L 220.190914 54.559297 
L 220.855321 53.61973 
L 221.019464 53.80956 
L 221.345451 53.353305 
L 221.828789 53.9134 
L 221.988425 53.688966 
L 222.305521 54.054256 
L 222.619761 53.612175 
L 223.085875 54.149007 
L 223.239872 53.931444 
L 223.697826 54.454776 
L 223.849151 54.239656 
L 223.999822 54.411268 
L 224.149846 54.198182 
L 224.299226 54.368504 
L 224.44797 54.157413 
L 225.036682 54.825131 
L 225.18232 54.616535 
L 226.043607 55.578414 
L 226.18511 55.37268 
L 226.745448 55.989108 
L 226.884138 55.785827 
L 227.296928 56.236035 
L 227.70489 55.637502 
L 227.974237 55.93301 
L 228.108135 55.736954 
L 228.241521 55.8832 
L 228.374399 55.688824 
L 228.506772 55.834145 
L 228.770021 55.450145 
L 229.161207 55.880666 
L 229.290633 55.691339 
L 229.803589 56.251371 
L 229.930657 56.064137 
L 230.183415 56.338429 
L 230.30911 56.152903 
L 230.434353 56.288748 
L 230.559149 56.104724 
L 230.930879 56.507009 
L 231.053914 56.324809 
L 231.903216 57.232373 
L 232.022875 57.05268 
L 232.142124 57.178963 
L 232.497445 56.647712 
L 232.849182 57.023022 
L 232.965644 56.848819 
L 233.312715 57.217183 
L 233.427642 57.044633 
L 233.656367 57.286522 
L 233.770169 57.115433 
L 233.883601 57.235361 
L 233.996665 57.065545 
L 234.221701 57.30341 
L 234.333676 57.135009 
L 234.445293 57.25296 
L 234.667462 56.919685 
L 234.888224 57.153968 
L 234.998084 56.989214 
L 235.107598 57.105403 
L 235.325601 56.779277 
L 235.650072 57.124409 
L 235.757561 56.963295 
L 235.864721 57.077069 
L 235.971552 56.917084 
L 236.078057 57.030305 
L 236.184237 56.871436 
L 236.290096 56.984109 
L 236.395634 56.826339 
L 236.500854 56.938469 
L 236.605757 56.781783 
L 236.710346 56.893375 
L 236.918588 56.583071 
L 237.228637 56.914668 
L 237.433816 56.608788 
L 237.637795 56.827125 
L 238.242672 55.932026 
L 238.541222 56.256926 
L 238.738845 55.965995 
L 238.837238 56.073284 
L 239.033195 55.785827 
L 239.130763 55.89272 
L 239.228058 55.750295 
L 239.325083 55.856693 
L 239.421838 55.715157 
L 239.614548 55.926388 
L 240.091715 55.231222 
L 240.374912 55.545149 
L 240.468803 55.408636 
L 240.562442 55.512242 
L 240.748968 55.241575 
L 241.119055 55.6512 
L 241.757406 54.728342 
L 241.937666 54.93105 
L 242.117 54.673773 
L 242.472925 55.073568 
L 242.649535 54.81947 
L 243.000094 55.211811 
L 243.087186 55.086002 
L 243.174061 55.182936 
L 243.26072 55.057822 
L 243.347165 55.154346 
L 244.535418 53.466571 
L 244.701912 53.659843 
L 244.784861 53.543696 
L 244.867614 53.639691 
L 245.032533 53.409137 
L 245.360051 53.788991 
L 245.522663 53.56096 
L 245.603686 53.65491 
L 245.684521 53.541732 
L 245.845632 53.728423 
L 245.925909 53.615857 
L 246.006002 53.708604 
L 246.085911 53.596598 
L 246.165637 53.688966 
L 246.324546 53.466571 
L 246.403729 53.558605 
L 246.482733 53.448206 
L 246.640207 53.631113 
L 246.718678 53.521295 
L 246.796973 53.612175 
L 246.875092 53.502891 
L 246.953037 53.593406 
L 247.108407 53.376378 
L 247.340171 53.645763 
L 247.493829 53.43089 
L 247.570405 53.519975 
L 247.723054 53.307059 
L 247.799129 53.395831 
L 247.875038 53.290106 
L 247.950783 53.37853 
L 248.026363 53.2733 
L 248.10178 53.361378 
L 248.177035 53.256639 
L 248.252127 53.344374 
L 248.55089 52.930027 
L 248.625182 53.017524 
L 248.847115 52.900241 
L 248.99429 52.697555 
L 249.067645 52.784437 
L 249.140846 52.870955 
L 249.576856 52.458199 
L 249.72099 52.629726 
L 249.864531 52.433145 
L 249.93608 52.518433 
L 250.149852 52.772212 
L 250.432858 52.564639 
L 250.643617 52.814572 
L 250.853109 52.705059 
L 250.922661 52.787427 
L 251.19949 52.407781 
L 251.268356 52.489922 
L 251.40568 52.653237 
L 251.814439 52.268664 
L 252.084307 52.590706 
L 252.15145 52.498728 
L 252.285347 52.657942 
L 252.352104 52.566363 
L 252.683984 52.282785 
L 252.815857 52.44041 
L 252.881607 52.350621 
L 253.143375 51.994819 
L 253.208511 52.073287 
L 253.273525 52.151463 
L 253.338419 52.063379 
L 253.661089 51.792265 
L 253.789325 51.947352 
L 253.853267 51.860933 
L 254.234477 51.51075 
L 254.486322 51.656217 
L 254.549 51.572027 
L 254.611566 51.648158 
L 254.736361 51.799606 
L 254.798592 51.715761 
L 254.922721 51.548963 
L 254.984621 51.624326 
L 255.169663 51.691339 
L 255.353729 51.600995 
L 255.658362 51.814858 
L 256.140309 51.322354 
L 256.497449 51.606048 
L 256.556618 51.526652 
L 256.615687 51.598609 
L 256.909542 51.804957 
L 256.968017 51.726158 
L 257.026394 51.79694 
L 257.258931 52.077715 
L 257.316823 51.999248 
L 257.489927 51.912747 
L 257.833579 52.179991 
L 257.890526 52.102637 
L 257.947381 52.170961 
L 258.117391 52.229886 
L 258.398913 51.991868 
L 258.454945 52.059382 
L 258.510888 51.983586 
L 258.844674 51.675591 
L 258.899996 51.742751 
L 258.95523 51.668414 
L 259.230096 51.440408 
L 259.393982 51.640157 
L 259.44844 51.567025 
L 259.502813 51.49412 
L 259.557102 51.560309 
L 259.611306 51.626292 
L 259.665426 51.553635 
L 259.719462 51.481202 
L 259.773415 51.547002 
L 260.041933 51.736022 
L 260.36145 51.443391 
L 260.572846 51.565973 
L 260.678066 51.424998 
L 260.730557 51.489101 
L 260.835303 51.61673 
L 260.887558 51.546589 
L 261.199456 51.26259 
L 261.251169 51.325984 
L 261.302806 51.257103 
L 261.354366 51.188425 
L 261.405849 51.251648 
L 261.815008 51.750795 
L 261.865817 51.682399 
L 262.068316 51.540012 
L 262.118757 51.601447 
L 262.169126 51.533858 
L 262.219422 51.466464 
L 262.269646 51.52774 
L 262.519685 51.703937 
L 262.668853 51.630631 
L 262.916057 51.804111 
L 262.965288 51.737761 
L 263.01445 51.797361 
L 263.161521 51.849923 
L 263.307975 51.652628 
L 263.356657 51.711765 
L 263.695538 51.997816 
L 263.743682 51.932664 
L 263.79176 51.990681 
L 263.839772 52.048539 
L 263.887717 51.983586 
L 263.983411 51.854212 
L 264.031159 51.91194 
L 264.268927 52.076909 
L 264.316286 52.01271 
L 264.363582 52.069675 
L 264.505084 52.119149 
L 264.739654 51.921437 
L 264.786379 51.977839 
L 264.833042 51.914716 
L 265.111714 51.657921 
L 265.157944 51.714074 
L 265.204113 51.651969 
L 265.25022 51.590027 
L 265.296267 51.646047 
L 265.434043 51.813225 
L 265.479848 51.751479 
L 265.571278 51.62847 
L 265.616903 51.683928 
L 265.662468 51.739241 
L 265.707974 51.677993 
L 265.753421 51.616905 
L 265.798808 51.672089 
L 266.024865 51.830507 
L 266.069901 51.769774 
L 266.114878 51.824263 
L 266.338902 51.980288 
L 266.383534 51.919907 
L 266.42811 51.973717 
L 266.561496 52.020725 
L 266.694373 51.954205 
L 266.87076 52.05396 
L 267.089996 51.86954 
L 267.177306 51.975 
L 267.220879 51.916058 
L 267.39463 51.792674 
L 267.437932 51.845107 
L 267.481182 51.786763 
L 267.696626 51.607168 
L 267.739556 51.659378 
L 267.782433 51.601764 
L 267.825257 51.544293 
L 267.868028 51.596387 
L 268.081104 51.746198 
L 268.208327 51.683503 
L 268.292886 51.786094 
L 268.335088 51.729233 
L 268.46139 51.559473 
L 268.503389 51.610609 
L 268.587236 51.712512 
L 268.629084 51.656217 
L 268.71263 51.54403 
L 268.754328 51.594818 
L 268.837575 51.696031 
L 268.879124 51.640157 
L 269.086129 51.362773 
L 269.127383 51.413235 
L 269.496491 51.757646 
L 269.740411 51.533858 
L 269.982636 51.725123 
L 270.263123 51.451154 
L 270.342849 51.54842 
L 270.382645 51.495072 
L 270.462099 51.38874 
L 270.501758 51.437223 
L 270.699381 51.577099 
L 270.817419 51.41894 
L 270.856677 51.466898 
L 270.974185 51.510024 
L 271.091299 51.353328 
L 271.13025 51.400984 
L 271.478862 51.726489 
L 271.671041 51.566566 
L 271.747617 51.659739 
L 271.785842 51.608373 
L 271.900266 51.552426 
L 272.014317 51.594006 
L 272.165806 51.391051 
L 272.203576 51.437223 
L 272.31664 51.478817 
L 272.391813 51.378243 
L 272.429339 51.42413 
L 272.541675 51.561202 
L 272.57904 51.511096 
L 272.728102 51.406934 
L 272.802395 51.497671 
L 272.839482 51.448006 
L 273.024327 51.29564 
L 273.134767 51.336717 
L 273.244857 51.283742 
L 273.281477 51.328622 
L 273.318058 51.27981 
L 273.500392 51.130387 
L 273.754068 51.34899 
L 274.041743 51.058022 
L 274.077536 51.10212 
L 274.113292 51.146128 
L 274.149012 51.098652 
L 274.398032 50.950509 
L 274.539534 51.034639 
L 274.680465 51.02808 
L 274.855832 51.154294 
L 274.96063 51.104409 
L 274.96063 51.104409 
" clip-path="url(#lln-p19171bcbec)" style="fill: none; stroke: #5598e7; stroke-linecap: round"/>
   </g>
   <g id="lln-line2d_41">
    <path d="M 34.015748 4.762205 
L 58.19296 49.407874 
L 72.335723 34.525984 
L 82.370173 27.085039 
L 90.153496 22.620472 
L 96.512935 19.644094 
L 101.889764 17.51811 
L 106.547385 15.923622 
L 110.655698 14.683465 
L 117.655161 12.879599 
L 120.690147 19.644094 
L 123.482065 25.367898 
L 128.473471 22.620472 
L 130.724597 27.085039 
L 132.839205 31.024363 
L 136.718793 28.259925 
L 140.209739 34.525984 
L 143.382866 39.702294 
L 144.86736 41.966929 
L 146.291245 40.47874 
L 147.659277 42.53931 
L 151.468186 38.631333 
L 153.794404 42.20696 
L 155.975135 39.937581 
L 157.016417 41.529226 
L 158.027512 40.47874 
L 159.010122 41.966929 
L 159.965808 40.961396 
L 160.896005 42.358558 
L 164.386951 38.777953 
L 165.207703 37.986889 
L 167.560078 41.64341 
L 169.044572 40.106693 
L 170.468457 42.264567 
L 171.836489 40.822168 
L 173.792909 43.725698 
L 174.421401 43.029921 
L 175.038768 43.925073 
L 175.645398 43.249851 
L 178.529713 47.28189 
L 179.079022 48.012697 
L 179.619813 47.347305 
L 180.152348 48.054975 
L 180.676874 47.408814 
L 182.699489 50.036686 
L 183.66845 48.79629 
L 184.14302 49.407874 
L 187.295647 45.549606 
L 188.146429 44.566777 
L 188.976953 45.731172 
L 189.384915 45.254789 
L 192.487434 49.407874 
L 192.856542 49.877828 
L 193.583242 48.947609 
L 194.99274 50.733983 
L 195.336392 50.283279 
L 195.67669 50.708233 
L 196.013701 50.266445 
L 196.347487 50.683465 
L 196.678109 50.250245 
L 198.285783 52.223367 
L 199.21598 50.974389 
L 199.520614 51.34899 
L 200.41887 50.16458 
L 201.581656 51.603563 
L 201.866395 51.222739 
L 202.148828 51.568148 
L 202.428993 51.193701 
L 202.982661 51.868659 
L 203.256234 51.50064 
L 204.064309 52.475134 
L 204.592809 51.757646 
L 204.854086 52.073287 
L 206.381937 50.045669 
L 206.876702 50.665499 
L 207.364547 50.027953 
L 207.605934 50.331578 
L 207.845662 50.019459 
L 208.555118 50.906051 
L 208.788432 50.598425 
L 209.020196 50.886207 
L 209.25043 50.58276 
L 209.479154 50.866883 
L 209.932152 50.271984 
L 210.156464 50.552635 
L 210.379342 50.260976 
L 210.820871 50.811826 
L 211.472859 49.959055 
L 211.687508 50.229573 
L 211.900844 49.952333 
L 212.112884 50.219613 
L 212.533134 49.675213 
L 212.948381 50.200401 
L 213.154165 49.933117 
L 213.764333 50.698211 
L 214.561632 49.660109 
L 214.758142 49.909511 
L 214.953551 49.657291 
L 215.341114 50.147857 
L 215.533293 49.898486 
L 215.724418 50.13977 
L 216.291591 49.407874 
L 216.478617 49.646621 
L 217.033754 48.93792 
L 217.398996 49.407874 
L 217.580193 49.176549 
L 218.472322 50.309807 
L 218.648042 50.080924 
L 218.822882 50.300787 
L 219.169953 49.84991 
L 219.342201 50.067662 
L 220.190914 48.978589 
L 220.524699 49.407874 
L 220.690402 49.196283 
L 220.855321 49.407874 
L 221.182838 48.990625 
L 221.345451 49.20022 
L 221.507309 48.994488 
L 221.66842 49.202134 
L 222.305521 48.397791 
L 222.462995 48.603448 
L 222.619761 48.40685 
L 222.931194 48.812598 
L 223.085875 48.617685 
L 223.697826 49.407874 
L 224.596082 48.272815 
L 224.743568 48.465982 
L 224.890433 48.282353 
L 225.18232 48.66378 
L 225.471785 48.300957 
L 225.901528 48.861192 
L 226.043607 48.681928 
L 226.18511 48.865619 
L 226.326041 48.687783 
L 226.466404 48.869974 
L 226.745448 48.518518 
L 226.884138 48.699213 
L 227.022278 48.525549 
L 227.296928 48.882631 
L 227.70489 48.369603 
L 227.839824 48.545989 
L 228.241521 48.044647 
L 228.506772 48.3932 
L 228.638645 48.228554 
L 228.770021 48.400829 
L 229.419581 47.595688 
L 229.548054 47.766489 
L 230.057265 47.143239 
L 230.183415 47.31259 
L 230.807409 46.55815 
L 230.930879 46.725979 
L 231.176516 46.431496 
L 231.298689 46.598007 
L 231.541759 46.30748 
L 231.662661 46.472692 
L 231.783146 46.328862 
L 232.497445 47.296255 
L 232.73233 47.010791 
L 233.081719 47.479656 
L 233.312715 47.197692 
L 234.221701 48.402988 
L 234.333676 48.263113 
L 234.667462 48.699213 
L 234.778018 48.560171 
L 234.888224 48.703684 
L 235.107598 48.428188 
L 235.21677 48.570768 
L 235.54225 48.163877 
L 235.757561 48.446275 
L 235.864721 48.312275 
L 236.078057 48.591185 
L 236.184237 48.457966 
L 236.395634 48.733468 
L 236.814622 48.208438 
L 237.125593 48.615347 
L 237.228637 48.485987 
L 237.331378 48.620009 
L 237.535955 48.363531 
L 237.739339 48.62917 
L 238.142585 48.124952 
L 238.342473 48.387402 
L 238.640173 48.016649 
L 238.837238 48.276012 
L 239.033195 48.032237 
L 239.130763 48.160788 
L 239.614548 47.563012 
L 239.996802 48.06972 
L 240.091715 47.952037 
L 240.18637 48.076973 
L 240.655829 47.497899 
L 240.841858 47.745535 
L 241.119055 47.405298 
L 241.210966 47.528056 
L 241.485256 47.193076 
L 241.576209 47.315108 
L 241.757406 47.094627 
L 242.117 47.576257 
L 242.295416 47.357818 
L 242.384284 47.476636 
L 242.561342 47.260361 
L 242.649535 47.378525 
L 242.737505 47.27118 
L 242.825255 47.388723 
L 243.000094 47.175591 
L 243.174061 47.408814 
L 243.26072 47.302991 
L 243.519414 47.648439 
L 243.690816 47.438212 
L 243.776203 47.552186 
L 243.946351 47.343962 
L 244.115673 47.570159 
L 244.451872 47.159531 
L 244.535418 47.271718 
L 244.701912 47.069291 
L 244.784861 47.180893 
L 244.950171 46.980332 
L 245.114701 47.201853 
L 245.278459 47.003072 
L 245.360051 47.113003 
L 245.441452 47.014283 
L 245.522663 47.123677 
L 245.845632 46.733249 
L 245.925909 46.842031 
L 246.006002 46.745518 
L 246.085911 46.853774 
L 246.165637 46.757674 
L 246.324546 46.972656 
L 246.403729 46.87694 
L 246.482733 46.983675 
L 246.718678 46.699036 
L 246.796973 46.805212 
L 246.875092 46.711156 
L 246.953037 46.816831 
L 247.185832 46.537088 
L 247.417084 46.851074 
L 247.799129 46.392589 
L 247.875038 46.4962 
L 247.950783 46.405671 
L 248.026363 46.508805 
L 248.10178 46.418639 
L 248.252127 46.62352 
L 248.55089 46.266494 
L 248.773294 46.570226 
L 248.847115 46.481836 
L 248.92078 46.582199 
L 248.99429 46.494157 
L 249.067645 46.594071 
L 249.140846 46.506373 
L 249.432124 46.159229 
L 249.576856 46.357549 
L 249.648998 46.271608 
L 249.72099 46.186022 
L 250.007483 46.394976 
L 250.149852 46.225392 
L 250.573505 46.623134 
L 250.922661 46.206193 
L 251.268356 46.67806 
L 251.337086 46.595548 
L 251.47414 46.431496 
L 251.610658 46.61752 
L 251.678718 46.53593 
L 251.746644 46.454659 
L 252.017036 46.64984 
L 252.285347 46.499919 
L 252.485235 46.601575 
L 252.683984 46.532963 
L 253.143375 46.987828 
L 253.467845 46.762205 
L 254.044393 47.374829 
L 254.234477 47.143239 
L 254.297609 47.228067 
L 254.360627 47.31259 
L 254.423531 47.235923 
L 254.611566 47.007569 
L 254.674019 47.09173 
L 255.046411 47.432402 
L 255.169663 47.28189 
L 255.231126 47.364234 
L 255.292481 47.446289 
L 255.353729 47.371405 
L 255.414869 47.296783 
L 255.475902 47.378525 
L 255.779475 47.628237 
L 255.839874 47.554075 
L 255.900168 47.634385 
L 256.200087 47.878913 
L 256.556618 47.591779 
L 256.615687 47.670395 
L 256.674657 47.597914 
L 257.489927 46.755656 
L 258.004143 47.44782 
L 258.060813 47.378525 
L 258.510888 46.975257 
L 258.67818 47.058102 
L 258.844674 46.856693 
L 258.899996 46.93149 
L 258.95523 47.00605 
L 259.010377 46.939314 
L 259.120409 46.806473 
L 259.175296 46.880761 
L 259.393982 47.036073 
L 259.502813 46.904379 
L 259.557102 46.977705 
L 259.827284 47.20315 
L 260.041933 47.079726 
L 260.255269 47.230036 
L 260.467308 47.107946 
L 260.520117 47.178968 
L 260.572846 47.114894 
L 260.625496 47.051014 
L 260.678066 47.121801 
L 260.887558 47.402829 
L 260.939735 47.339091 
L 261.0958 47.28189 
L 261.251169 47.35748 
L 261.457257 47.238055 
L 261.50859 47.306901 
L 261.559847 47.244427 
L 261.611029 47.182137 
L 261.662135 47.250763 
L 261.713167 47.319188 
L 261.764125 47.257061 
L 261.967213 47.139952 
L 262.017801 47.207942 
L 262.068316 47.146516 
L 262.118757 47.085267 
L 262.169126 47.153042 
L 262.46982 47.42788 
L 262.668853 47.312131 
L 262.718434 47.378525 
L 262.767945 47.318077 
L 262.965288 47.203927 
L 263.112566 47.275918 
L 263.40527 47.045011 
L 263.599051 47.181774 
L 263.743682 47.129405 
L 263.983411 47.450804 
L 264.031159 47.392406 
L 264.221503 47.28189 
L 264.552125 47.602793 
L 264.879642 47.321628 
L 264.92618 47.383937 
L 264.972656 47.327184 
L 265.019071 47.270581 
L 265.065423 47.33271 
L 265.296267 47.523096 
L 265.434043 47.354525 
L 265.479848 47.41581 
L 265.707974 47.603421 
L 265.753421 47.547638 
L 265.798808 47.608114 
L 266.024865 47.792785 
L 266.204661 47.686319 
L 266.338902 47.750096 
L 266.561496 47.476636 
L 266.605845 47.535819 
L 266.782678 47.771054 
L 266.826747 47.71675 
L 266.95862 47.666974 
L 267.177306 47.845276 
L 267.567519 47.476356 
L 267.825257 47.819255 
L 267.868028 47.766489 
L 267.99603 47.717989 
L 268.292886 48.002562 
L 268.335088 47.950277 
L 268.37724 48.005957 
L 268.587236 48.17516 
L 268.754328 48.074371 
L 268.879124 48.238583 
L 268.920623 48.186887 
L 269.003474 48.083862 
L 269.044826 48.138329 
L 269.086129 48.192666 
L 269.127383 48.14133 
L 269.250854 48.093219 
L 269.291914 48.14729 
L 269.332925 48.096309 
L 269.455672 48.048638 
L 269.537263 48.156126 
L 269.577987 48.105492 
L 269.699876 48.058121 
L 269.982636 48.326491 
L 270.103121 48.278903 
L 270.382645 48.542451 
L 270.422394 48.492587 
L 270.462099 48.54442 
L 270.620466 48.649454 
L 270.659946 48.599808 
L 270.699381 48.651168 
L 270.89589 48.80591 
L 270.93506 48.756478 
L 270.974185 48.80726 
L 271.169157 48.959924 
L 271.285619 48.911811 
L 271.440299 49.111553 
L 271.478862 49.062548 
L 271.671041 48.81914 
L 271.70935 48.868793 
L 272.090144 49.262448 
L 272.203576 49.214603 
L 272.241305 49.263077 
L 272.278993 49.21502 
L 272.391813 49.167585 
L 272.616366 49.360125 
L 272.653651 49.312477 
L 272.690896 49.360227 
L 272.765268 49.45542 
L 272.802395 49.407874 
L 272.876529 49.313085 
L 272.913538 49.36053 
L 272.950507 49.407874 
L 272.987437 49.36063 
L 273.171502 49.219892 
L 273.208199 49.267036 
L 273.244857 49.220287 
L 273.354601 49.080628 
L 273.391106 49.127671 
L 273.427573 49.174616 
L 273.464002 49.128256 
L 273.645576 48.990625 
L 273.790158 49.084689 
L 273.82621 49.038902 
L 273.862225 49.085356 
L 273.898202 49.131715 
L 273.934143 49.086021 
L 273.970046 49.04042 
L 274.005913 49.086682 
L 274.041743 49.132849 
L 274.077536 49.087341 
L 274.398032 48.772671 
L 274.57482 49.001594 
L 274.645286 48.912312 
L 274.680465 48.867805 
L 274.715609 48.91331 
L 274.890799 49.049993 
L 274.925732 49.005661 
L 274.96063 48.961417 
L 274.96063 48.961417 
" clip-path="url(#lln-p19171bcbec)" style="fill: none; stroke: #9ec5f4; stroke-linecap: round"/>
   </g>
   <g id="lln-line2d_42">
    <path d="M 34.015748 49.407874 
L 274.96063 49.407874 
" clip-path="url(#lln-p19171bcbec)" style="fill: none; stroke: #323c4a; stroke-width: 0.7; stroke-linecap: round"/>
   </g>
   <g id="lln-patch_3">
    <path d="M 34.015748 94.053543 
L 34.015748 4.762205 
" style="fill: none; stroke: #b3bcc6; stroke-width: 0.6; stroke-linejoin: miter; stroke-linecap: square"/>
   </g>
   <g id="lln-patch_4">
    <path d="M 34.015748 94.053543 
L 274.96063 94.053543 
" style="fill: none; stroke: #b3bcc6; stroke-width: 0.6; stroke-linejoin: miter; stroke-linecap: square"/>
   </g>
   <g id="lln-text_12">
    <text style="font-size: 6.1px; font-family: 'Inter', 'DejaVu Sans'; text-anchor: end; fill: #5d6775" x="271.285619" y="31.549606" transform="rotate(-0 271.285619 31.549606)">0,5 ± 1,96·SE</text>
   </g>
  </g>
 </g>
 <defs>
  <clipPath id="lln-p19171bcbec">
   <rect x="34.015748" y="4.762205" width="240.944882" height="89.291339"/>
  </clipPath>
 </defs>
</svg>
